<svg height="16px" width="16px" id="svg6" xmlns="http://www.w3.org/2000/svg" xmlns:xlink="http://www.w3.org/1999/xlink" viewBox="0 0 16 16"><defs><style>.cls-1{fill:#faf8f9;}.cls-2{fill:url(#Gradiente_sem_nome_13);}.cls-3{fill:url(#Gradiente_sem_nome_2);}.cls-4{fill:url(#Gradiente_sem_nome_3);}.cls-5{fill:url(#Gradiente_sem_nome_4);}.cls-6{fill:url(#Gradiente_sem_nome_5);}.cls-7{fill:url(#Gradiente_sem_nome_6);}.cls-8{fill:url(#Gradiente_sem_nome_7);}.cls-9{fill:url(#Gradiente_sem_nome_8);}.cls-10{fill:url(#Gradiente_sem_nome_9);}.cls-11{fill:url(#Gradiente_sem_nome_10);}.cls-12{fill:url(#Gradiente_sem_nome_11);}.cls-13{fill:url(#Gradiente_sem_nome_12);}</style><linearGradient id="Gradiente_sem_nome_13" x1="13.9144" y1="12.134" x2="4.2629" y2="2.822" gradientTransform="matrix(1, 0, 0, -1, -1.3, 15.9959)" gradientUnits="userSpaceOnUse"><stop offset="0.048" stop-color="#fff44f"/><stop offset="0.111" stop-color="#ffe847"/><stop offset="0.225" stop-color="#ffc830"/><stop offset="0.368" stop-color="#ff980e"/><stop offset="0.401" stop-color="#ff8b16"/><stop offset="0.462" stop-color="#ff672a"/><stop offset="0.534" stop-color="#ff3647"/><stop offset="0.705" stop-color="#e31587"/></linearGradient><radialGradient id="Gradiente_sem_nome_2" cx="-7961.7573" cy="8536.6441" r="12.12" gradientTransform="matrix(1, 0, 0, -1, 7974, 8540)" gradientUnits="userSpaceOnUse"><stop offset="0.129" stop-color="#ffbd4f"/><stop offset="0.186" stop-color="#ffac31"/><stop offset="0.247" stop-color="#ff9d17"/><stop offset="0.283" stop-color="#ff980e"/><stop offset="0.403" stop-color="#ff563b"/><stop offset="0.467" stop-color="#ff3750"/><stop offset="0.71" stop-color="#f5156c"/><stop offset="0.782" stop-color="#eb0878"/><stop offset="0.86" stop-color="#e50080"/></radialGradient><radialGradient id="Gradiente_sem_nome_3" cx="-7966.2573" cy="8531.6941" r="12.12" gradientTransform="matrix(1, 0, 0, -1, 7974, 8540)" gradientUnits="userSpaceOnUse"><stop offset="0.3" stop-color="#960e18"/><stop offset="0.351" stop-color="#b11927" stop-opacity="0.74"/><stop offset="0.435" stop-color="#db293d" stop-opacity="0.343"/><stop offset="0.497" stop-color="#f5334b" stop-opacity="0.094"/><stop offset="0.53" stop-color="#ff3750" stop-opacity="0"/></radialGradient><radialGradient id="Gradiente_sem_nome_4" cx="-7964.7573" cy="8539.3441" r="8.7795" gradientTransform="matrix(1, 0, 0, -1, 7974, 8540)" gradientUnits="userSpaceOnUse"><stop offset="0.132" stop-color="#fff44f"/><stop offset="0.252" stop-color="#ffdc3e"/><stop offset="0.506" stop-color="#ff9d12"/><stop offset="0.526" stop-color="#ff980e"/></radialGradient><radialGradient id="Gradiente_sem_nome_5" cx="-7967.6073" cy="8528.5441" r="5.7705" gradientTransform="matrix(1, 0, 0, -1, 7974, 8540)" gradientUnits="userSpaceOnUse"><stop offset="0.353" stop-color="#3a8ee6"/><stop offset="0.472" stop-color="#5c79f0"/><stop offset="0.669" stop-color="#9059ff"/><stop offset="1" stop-color="#c139e6"/></radialGradient><radialGradient id="Gradiente_sem_nome_6" cx="-7961.1378" cy="8537.6185" r="3.06" gradientTransform="matrix(0.972, -0.235, -0.275, -1.138, 10094.4, 7852.208)" gradientUnits="userSpaceOnUse"><stop offset="0.206" stop-color="#9059ff" stop-opacity="0"/><stop offset="0.278" stop-color="#8c4ff3" stop-opacity="0.064"/><stop offset="0.747" stop-color="#7716a8" stop-opacity="0.45"/><stop offset="0.975" stop-color="#6e008b" stop-opacity="0.6"/></radialGradient><radialGradient id="Gradiente_sem_nome_7" cx="-7966.4073" cy="8537.0941" r="4.152" gradientTransform="matrix(1, 0, 0, -1, 7974, 8540)" gradientUnits="userSpaceOnUse"><stop offset="0" stop-color="#ffe226"/><stop offset="0.121" stop-color="#ffdb27"/><stop offset="0.295" stop-color="#ffc82a"/><stop offset="0.502" stop-color="#ffa930"/><stop offset="0.732" stop-color="#ff7e37"/><stop offset="0.792" stop-color="#ff7139"/></radialGradient><radialGradient id="Gradiente_sem_nome_8" cx="-7963.1073" cy="8539.7941" r="17.715" gradientTransform="matrix(1, 0, 0, -1, 7974, 8540)" gradientUnits="userSpaceOnUse"><stop offset="0.113" stop-color="#fff44f"/><stop offset="0.456" stop-color="#ff980e"/><stop offset="0.622" stop-color="#ff5634"/><stop offset="0.716" stop-color="#ff3647"/><stop offset="0.904" stop-color="#e31587"/></radialGradient><radialGradient id="Gradiente_sem_nome_9" cx="-7924.4713" cy="8479.2309" r="12.975" gradientTransform="matrix(0.105, 0.995, 0.653, -0.069, -4695.448, 8471.104)" gradientUnits="userSpaceOnUse"><stop offset="0" stop-color="#fff44f"/><stop offset="0.06" stop-color="#ffe847"/><stop offset="0.168" stop-color="#ffc830"/><stop offset="0.304" stop-color="#ff980e"/><stop offset="0.356" stop-color="#ff8b16"/><stop offset="0.455" stop-color="#ff672a"/><stop offset="0.57" stop-color="#ff3647"/><stop offset="0.737" stop-color="#e31587"/></radialGradient><radialGradient id="Gradiente_sem_nome_10" cx="-7966.4073" cy="8535.5941" r="11.058" gradientTransform="matrix(1, 0, 0, -1, 7974, 8540)" gradientUnits="userSpaceOnUse"><stop offset="0.137" stop-color="#fff44f"/><stop offset="0.48" stop-color="#ff980e"/><stop offset="0.592" stop-color="#ff5634"/><stop offset="0.655" stop-color="#ff3647"/><stop offset="0.904" stop-color="#e31587"/></radialGradient><radialGradient id="Gradiente_sem_nome_11" cx="-7963.5573" cy="8534.9941" r="12.1035" gradientTransform="matrix(1, 0, 0, -1, 7974, 8540)" gradientUnits="userSpaceOnUse"><stop offset="0.094" stop-color="#fff44f"/><stop offset="0.231" stop-color="#ffe141"/><stop offset="0.509" stop-color="#ffaf1e"/><stop offset="0.626" stop-color="#ff980e"/></radialGradient><linearGradient id="Gradiente_sem_nome_12" x1="13.7982" y1="12.1826" x2="5.5872" y2="3.9701" gradientTransform="matrix(1, 0, 0, -1, -1.3, 15.9959)" gradientUnits="userSpaceOnUse"><stop offset="0.167" stop-color="#fff44f" stop-opacity="0.8"/><stop offset="0.266" stop-color="#fff44f" stop-opacity="0.634"/><stop offset="0.489" stop-color="#fff44f" stop-opacity="0.217"/><stop offset="0.6" stop-color="#fff44f" stop-opacity="0"/></linearGradient></defs><path id="rect51" class="cls-1" d="M4.09,1h7.8065A3.1124,3.1124,0,0,1,15,4.1032V11.91A3.09,3.09,0,0,1,11.91,15H4.1032A3.1124,3.1124,0,0,1,1,11.8968V4.09A3.0993,3.0993,0,0,1,4.09,1Z"/><path class="cls-2" d="M13.3857,6.03A3.2624,3.2624,0,0,0,12.22,4.5589a6.04,6.04,0,0,1,.5887,1.764l.0011.01c-.6573-1.638-1.7715-2.2995-2.682-3.738-.0461-.0727-.0921-.1456-.137-.2226-.0256-.0439-.0462-.0835-.064-.12a1.0538,1.0538,0,0,1-.0867-.23.015.015,0,0,0-.0132-.015h-.011l-.0028.0016-.0042.0023.0022-.0039a4.24,4.24,0,0,0-2.001,3.23,2.9088,2.9088,0,0,0-1.6.6166,1.743,1.743,0,0,0-.15-.1137,2.6953,2.6953,0,0,1-.0163-1.4209A4.3037,4.3037,0,0,0,4.6434,5.4H4.6407A3.178,3.178,0,0,1,4.44,3.9436a1.04,1.04,0,0,0-.1941.103,4.2385,4.2385,0,0,0-.5682.4868,5.0791,5.0791,0,0,0-.5434.652v0a4.906,4.906,0,0,0-.78,1.761l-.0078.0384c-.011.0511-.05.3073-.0572.363L2.2877,7.36a5.5358,5.5358,0,0,0-.0944.8015v.03a5.814,5.814,0,0,0,11.5425.9831c.01-.075.0177-.1493.0264-.225a5.9785,5.9785,0,0,0-.3771-2.92Zm-6.7,4.551c.0272.013.0527.0271.0806.04l.004.0025Q6.7275,10.6032,6.6852,10.5814Zm6.1242-4.2471V6.3287l.0011.0062Z"/><path class="cls-3" d="M13.3857,6.03A3.2624,3.2624,0,0,0,12.22,4.5589a6.04,6.04,0,0,1,.5887,1.764v.0055l.0011.0062a5.2656,5.2656,0,0,1-.1809,3.924,4.9967,4.9967,0,0,1-4.803,2.823A5.8532,5.8532,0,0,1,2.2469,8.33a2.5064,2.5064,0,0,1,.0411-.97,4.3289,4.3289,0,0,0-.0935.8022v.03a5.814,5.814,0,0,0,11.5425.9831c.01-.075.0177-.1492.0264-.225A5.9787,5.9787,0,0,0,13.3863,6.03Z"/><path class="cls-4" d="M13.3857,6.03A3.2624,3.2624,0,0,0,12.22,4.5589a6.04,6.04,0,0,1,.5887,1.764v.0055l.0011.0062a5.2656,5.2656,0,0,1-.1809,3.924,4.9967,4.9967,0,0,1-4.803,2.823A5.8532,5.8532,0,0,1,2.2469,8.33a2.5064,2.5064,0,0,1,.0411-.97,4.3289,4.3289,0,0,0-.0935.8022v.03a5.814,5.814,0,0,0,11.5425.9831c.01-.075.0177-.1492.0264-.225A5.9787,5.9787,0,0,0,13.3863,6.03Z"/><path class="cls-5" d="M10.56,6.7129l.0362.0265a3.17,3.17,0,0,0-.54-.7042,2.9371,2.9371,0,0,1-.2487-4.026l.0022-.0033a4.24,4.24,0,0,0-2.001,3.23c.0678-.0047.135-.01.2043-.01A2.934,2.934,0,0,1,10.56,6.7126Z"/><path class="cls-6" d="M8.0157,7.0744a1.4032,1.4032,0,0,1-.6991.6433c-1.653,0-1.9215,1-1.9215,1A2.4536,2.4536,0,0,0,6.7644,10.62c.0324.0168.0653.0319.0981.0468q.0854.0378.1707.07a2.5874,2.5874,0,0,0,.7565.1459,2.4058,2.4058,0,0,0,1.3678-4.51,2.0069,2.0069,0,0,1,1.4018.34,2.9343,2.9343,0,0,0-2.547-1.4876c-.069,0-.1365.0057-.2043.01a2.9086,2.9086,0,0,0-1.6005.6166c.0886.075.1887.1752.3994.383a9.1622,9.1622,0,0,0,1.4085.8385Z"/><path class="cls-7" d="M8.0157,7.0744a1.4032,1.4032,0,0,1-.6991.6433c-1.653,0-1.9215,1-1.9215,1A2.4536,2.4536,0,0,0,6.7644,10.62c.0324.0168.0653.0319.0981.0468q.0854.0378.1707.07a2.5874,2.5874,0,0,0,.7565.1459,2.4058,2.4058,0,0,0,1.3678-4.51,2.0069,2.0069,0,0,1,1.4018.34,2.9343,2.9343,0,0,0-2.547-1.4876c-.069,0-.1365.0057-.2043.01a2.9086,2.9086,0,0,0-1.6005.6166c.0886.075.1887.1752.3994.383a9.1622,9.1622,0,0,0,1.4085.8385Z"/><path class="cls-8" d="M5.9367,5.66c.0471.03.086.0561.12.08A2.6953,2.6953,0,0,1,6.04,4.3186,4.3037,4.3037,0,0,0,4.641,5.4,2.8623,2.8623,0,0,1,5.9367,5.66Z"/><path class="cls-9" d="M2.2458,8.33a5.8526,5.8526,0,0,0,5.5785,4.752,4.9984,4.9984,0,0,0,4.803-2.823,5.2647,5.2647,0,0,0,.1809-3.924V6.3238l.0011.01A3.9149,3.9149,0,0,1,11.26,9.8675l-.0033.0075a4.069,4.069,0,0,1-4.4865.75q-.0423-.02-.0846-.0421a2.6417,2.6417,0,0,1-1.611-2.64,1.493,1.493,0,0,1-1.3772-.8663,2.1931,2.1931,0,0,1,2.1375-.0858,2.8947,2.8947,0,0,0,2.1825.0858,9.1622,9.1622,0,0,1-1.4085-.8385C6.398,6.03,6.2979,5.93,6.2093,5.8552a1.7381,1.7381,0,0,0-.15-.1137c-.0345-.0236-.0734-.0491-.12-.08a2.8636,2.8636,0,0,0-1.2953-.26H4.6413A3.1777,3.1777,0,0,1,4.44,3.9458a1.04,1.04,0,0,0-.1941.1031,4.2305,4.2305,0,0,0-.5682.4867,5.0852,5.0852,0,0,0-.5457.6506v0a4.911,4.911,0,0,0-.78,1.761A4.3525,4.3525,0,0,0,2.2448,8.33Z"/><path class="cls-10" d="M10.0557,6.0349a3.1659,3.1659,0,0,1,.54.705c.032.0241.0618.0481.0872.0714a2.7865,2.7865,0,0,1,.576,3.054,3.9151,3.9151,0,0,0,1.55-3.534c-.6576-1.6395-1.773-2.301-2.682-3.7395-.0461-.0728-.0921-.1457-.137-.2226-.0256-.044-.0462-.0836-.064-.12a1.0526,1.0526,0,0,1-.0867-.23.0151.0151,0,0,0-.0132-.015h-.011l-.0028.0017-.0042.0022a2.9352,2.9352,0,0,0,.249,4.0245Z"/><path class="cls-11" d="M10.6827,6.8119c-.0253-.0233-.0552-.0473-.0871-.0714l-.0362-.0266a2.007,2.007,0,0,0-1.4017-.34A2.4059,2.4059,0,0,1,7.79,10.8841a2.5836,2.5836,0,0,1-.7564-.146q-.0854-.032-.1707-.07c-.0329-.015-.0657-.03-.0981-.0468l.004.0026a4.067,4.067,0,0,0,4.4865-.75l.0033-.0075a2.7837,2.7837,0,0,0-.576-3.054Z"/><path class="cls-12" d="M5.3952,8.7169s.2684-1,1.9215-1a1.4014,1.4014,0,0,0,.6992-.6433,2.8956,2.8956,0,0,1-2.1825-.0858,2.1929,2.1929,0,0,0-2.1375.0858A1.4927,1.4927,0,0,0,5.073,7.94a2.6432,2.6432,0,0,0,1.611,2.64c.0272.0131.0527.0272.0806.04a2.4539,2.4539,0,0,1-1.3694-1.902Z"/><path class="cls-13" d="M13.3857,6.03A3.2624,3.2624,0,0,0,12.22,4.5589a6.04,6.04,0,0,1,.5887,1.764l.0011.01c-.6573-1.638-1.7715-2.2995-2.682-3.738-.0461-.0727-.0921-.1456-.137-.2226-.0256-.0439-.0462-.0835-.064-.12a1.0538,1.0538,0,0,1-.0867-.23.015.015,0,0,0-.0132-.015h-.011l-.0028.0016-.0042.0023.0022-.0039a4.24,4.24,0,0,0-2.001,3.23c.0678-.0047.135-.01.2043-.01a2.934,2.934,0,0,1,2.547,1.4876,2.0066,2.0066,0,0,0-1.4017-.34,2.4059,2.4059,0,0,1-1.3679,4.51,2.5868,2.5868,0,0,1-.7564-.1459q-.0854-.032-.1707-.07c-.0329-.015-.0657-.03-.0981-.0468l.004.0025q-.0423-.02-.0846-.0421c.0272.013.0527.0271.0806.04A2.4546,2.4546,0,0,1,5.3967,8.719s.2684-1,1.9215-1a1.4014,1.4014,0,0,0,.6992-.6433,9.1659,9.1659,0,0,1-1.4085-.8385c-.2108-.2078-.3108-.3078-.4-.383a1.743,1.743,0,0,0-.15-.1137A2.6953,2.6953,0,0,1,6.0431,4.32,4.3037,4.3037,0,0,0,4.6437,5.401H4.641A3.178,3.178,0,0,1,4.44,3.9448a1.04,1.04,0,0,0-.1941.103,4.2385,4.2385,0,0,0-.5682.4868,5.0791,5.0791,0,0,0-.5434.652v0a4.906,4.906,0,0,0-.78,1.761l-.0078.0384c-.011.0511-.06.3109-.0671.3667h0a6.76,6.76,0,0,0-.0858.8105v.03a5.814,5.814,0,0,0,11.5425.9831c.01-.075.0177-.1493.0264-.225a5.9785,5.9785,0,0,0-.3771-2.92Zm-.5767.2986.001.0062Z"/></svg>