<svg height="16px" width="16px" id="svg61" xmlns="http://www.w3.org/2000/svg" viewBox="0 0 16 16"><defs><style>.cls-1{fill:#f2cd3a;}.cls-2{fill:#224a63;}</style></defs><g id="g1124"><rect class="cls-1" x="1" y="1" width="14" height="14" rx="3.2504"/><path class="cls-2" d="M10.8821,3.0551c.2527.005.3119.1594.312.5078l.0039,6.194a3.207,3.207,0,0,1-.1289,1.1186,1.4845,1.4845,0,0,1-1.3622.81A1.0727,1.0727,0,0,1,8.4584,10.64c-.0089-.6414.2777-1.1254,1.7343-1.3423.4116-.0658.4466-.23.4634-.5874L10.65,5.6847c-.0033-.2463-.1058-.3209-.3241-.2769l-1.3428.271-.2939.06-1.9672.3964c-.3757.0779-.3274.2356-.3286.5191L6.399,10.703a2.6134,2.6134,0,0,1-.1211,1.13A1.5269,1.5269,0,0,1,4.9,12.6639a1.0883,1.0883,0,0,1-1.24-1.0786c-.0089-.6414.2738-1.0923,1.73-1.309.4116-.0659.45-.2624.4673-.62L5.8511,4.5656c-.0087-.3261.063-.5323.4326-.6113l2.0121-.397.05-.01L10.56,3.0979a1.3952,1.3952,0,0,1,.3223-.043Z"/></g></svg>