<svg  height="16px" width="16px" xmlns="http://www.w3.org/2000/svg" viewBox="0 0 16 16"><defs><style>.cls-1{fill:#0b89ef;}.cls-2{fill:#ebf7ff;}.cls-3{fill:#e9f6ff;}.cls-4{fill:#e8f6ff;}</style></defs><g id="svg6"><g id="layer1"><path id="rect51" class="cls-1" d="M4.09,1h7.8065A3.1124,3.1124,0,0,1,15,4.1032V11.91A3.09,3.09,0,0,1,11.91,15H4.1032A3.1124,3.1124,0,0,1,1,11.8968V4.09A3.0993,3.0993,0,0,1,4.09,1Z"/></g><path class="cls-2" d="M8,3.0068C6.37,3.0068,4.9932,2.0879,4.9932,1H4.0068C4.0068,2.65,5.7983,3.9932,8,3.9932S11.9932,2.65,11.9932,1h-.9864C11.0068,2.0879,9.63,3.0068,8,3.0068Z"/></g><g id="Camada_2" data-name="Camada 2"><path class="cls-2" d="M11.9457,11.4552h-3.98a.6358.6358,0,0,1,0-1.2715h3.98a.6358.6358,0,0,1,0,1.2715Z"/><path class="cls-3" d="M11.1039,13.2355a.636.636,0,0,1-.5489-.3145L6.6,6.1686A.6355.6355,0,1,1,7.6961,5.526l3.9546,6.7524a.6361.6361,0,0,1-.5468.9571Z"/><path class="cls-3" d="M4.7352,13.2355a.6364.6364,0,0,1-.5478-.9571L8.1439,5.526A.6351.6351,0,1,1,9.24,6.1686L5.284,12.921A.6375.6375,0,0,1,4.7352,13.2355Z"/><path id="path65" class="cls-4" d="M4.0487,10.1891a.634.634,0,0,0,0,1.268H9.3058l-.5091-1.268Z"/></g></svg>