<svg height="16px" width="16px" id="svg6" xmlns="http://www.w3.org/2000/svg" viewBox="0 0 16 16"><defs><style>.cls-1{fill:#0b89ef;}.cls-2{fill:#0232ad;fill-opacity:0.275;}.cls-2,.cls-5,.cls-6,.cls-8{opacity:0.75;}.cls-3{fill:#ebf7ff;}.cls-4{fill:#e9f6ff;}.cls-5{fill:#4da1ff;}.cls-6{fill:#76b6ff;}.cls-7{fill:#e8f6ff;}.cls-8{fill:#87caff;}</style></defs><g id="layer1"><path id="rect51" class="cls-1" d="M4.09,1h7.8065A3.1124,3.1124,0,0,1,15,4.1032V11.91A3.09,3.09,0,0,1,11.91,15H4.1032A3.1124,3.1124,0,0,1,1,11.8968V4.09A3.0993,3.0993,0,0,1,4.09,1Z"/><path id="path53" class="cls-2" d="M9.14,4.1751a.637.637,0,0,0-.563.322l-.2406.41-.2406-.41a.6363.6363,0,1,0-1.1.64l.6025,1.0269L5.8332,9.173H4.47a.634.634,0,1,0,0,1.2679h.6183l-.4831.8242a.6359.6359,0,0,0,1.0858.6621l.0138-.0234.8584-1.4629h3.544l.859,1.4629a.636.636,0,0,0,1.111-.6193l-.012-.02-.4831-.8242h.7286a.6339.6339,0,0,0,0-1.2674H10.8386L9.0726,6.1632l.6029-1.0264a.6345.6345,0,0,0-.5365-.9622Zm-.8036,3.246L9.3637,9.173H7.308Z"/><path class="cls-3" d="M12.1123,10.1855H8.1328a.6357.6357,0,0,1,0-1.2714h3.98a.6357.6357,0,0,1,0,1.2714Z"/><path class="cls-4" d="M11.2705,11.9658a.6359.6359,0,0,1-.5488-.3144L6.7661,4.8989a.6355.6355,0,0,1,1.0967-.6426l3.9546,6.7525a.6361.6361,0,0,1-.5469.957Z"/><path id="path59" class="cls-5" d="M8.5423,5.4181l-.83,1.1011.7565,1.289c-.0482-.712.1438-1.3522.71-1.3053Z"/><path class="cls-4" d="M4.9019,11.9658a.6365.6365,0,0,1-.5479-.957L8.3105,4.2563a.6351.6351,0,1,1,1.0957.6426L5.4507,11.6514A.6379.6379,0,0,1,4.9019,11.9658Z"/><path id="path63" class="cls-6" d="M4.9054,10.0662l-.2021.344a.8106.8106,0,0,1,1.1236.599l.5534-.943Z"/><path id="path65" class="cls-7" d="M4.2154,8.92a.634.634,0,0,0,0,1.2679H9.4725L8.9634,8.92Z"/><path id="path67" class="cls-8" d="M8.7194,8.92a.8061.8061,0,0,1,.2675,1.2679h.8768L9.12,8.92Z"/></g></svg>