<svg height="16px" width="16px" id="svg6" xmlns="http://www.w3.org/2000/svg" viewBox="0 0 32 32"><defs><style>.cls-1{fill:#f1fae1;}.cls-2{fill:#cd9f61;}.cls-3{fill:#c08f4f;stroke:#c08f4f;stroke-linecap:round;}.cls-4{fill:none;}.cls-5{fill:#a97835;}.cls-6{fill:#d7f05b;}</style></defs><path id="rect51" class="cls-1" d="M8.1805,2h15.613A6.2247,6.2247,0,0,1,30,8.2065V23.82A6.18,6.18,0,0,1,23.82,30H8.2065A6.2247,6.2247,0,0,1,2,23.7935V8.1805A6.1986,6.1986,0,0,1,8.1805,2Z"/><path class="cls-2" d="M27.244,26H4.756A.7393.7393,0,0,1,4,25.28V11.8843a.69.69,0,0,1,.08-.3214L6.79,6.3986A.7643.7643,0,0,1,7.468,6H24.5335a.762.762,0,0,1,.6765.3986l2.71,5.1643A.69.69,0,0,1,28,11.8843V25.28A.7393.7393,0,0,1,27.244,26Z"/><path id="path3273" class="cls-3" d="M5.5,12.5h21"/><rect class="cls-4" x="4" y="4" width="24" height="24"/><path class="cls-5" d="M14,6h4a0,0,0,0,1,0,0v9.1579A.8421.8421,0,0,1,17.1579,16H14.8421A.8421.8421,0,0,1,14,15.1579V6A0,0,0,0,1,14,6Z"/><rect class="cls-4" width="32" height="32"/><path class="cls-6" d="M20.875,12h3.25a.875.875,0,0,1,.875.875V20a0,0,0,0,1,0,0H20a0,0,0,0,1,0,0V12.875A.875.875,0,0,1,20.875,12Z"/><path class="cls-6" d="M17.7781,20.2158l4.1265,6.4478a.6951.6951,0,0,0,1.1908,0l4.1265-6.4478A.78.78,0,0,0,26.6265,19h-8.253A.78.78,0,0,0,17.7781,20.2158Z"/></svg>