<svg height="22px" width="22px" id="svg6" xmlns="http://www.w3.org/2000/svg" viewBox="0 0 22 22"><defs><style>.cls-1{fill:#16b1f2;}.cls-2{fill:#dbe8fa;}.cls-3,.cls-4{fill:none;}.cls-3{stroke:#000;stroke-linecap:round;stroke-miterlimit:15.1181;stroke-width:0.8929px;}</style></defs><g id="layer1"><path id="rect849" class="cls-1" d="M5.434,1.0079h11.13a4.434,4.434,0,0,1,4.434,4.434V16.567A4.4327,4.4327,0,0,1,16.5647,21H5.434A4.434,4.434,0,0,1,1,16.5657V5.4418a4.434,4.434,0,0,1,4.434-4.434Z"/><path id="path2191" class="cls-2" d="M11.0013,1H16.566A4.4245,4.4245,0,0,1,21,5.4345v11.131A4.4245,4.4245,0,0,1,16.566,21H12.76a45.2427,45.2427,0,0,1-1.0488-7.5643c-.069-.654-.1721-.8076-.6157-.8252l-1.909-.0759C8.7,12.497,8.6483,11.7876,8.68,11.2A53.7775,53.7775,0,0,1,11.0013,1Z"/><g id="g2341"><path id="path2336" class="cls-3" d="M5.7828,14.56c2.0847,2.52,8.0305,2.6323,10.4318.0242"/></g></g><rect class="cls-4" width="22" height="22"/><rect x="6" y="7" width="1" height="2" rx="0.5"/><rect x="15" y="7" width="1" height="2" rx="0.5"/></svg>