<svg height="22px" width="22px" id="svg1478" xmlns="http://www.w3.org/2000/svg" viewBox="0 0 22 22"><defs><style>.cls-1{fill:#c2cdd0;}.cls-2{fill:#3f4343;}.cls-3{fill:#3e4242;}.cls-4{fill:#8f9596;}.cls-5{fill:#c5d1d5;fill-rule:evenodd;}</style></defs><g id="layer1"><rect id="rect849" class="cls-1" x="1" y="1" width="20" height="20" rx="4.4345"/><circle id="path1106" class="cls-2" cx="11.0291" cy="11" r="8.5372"/><path id="path1168" class="cls-3" d="M11,4.2224A6.7777,6.7777,0,0,0,4.2224,11h0A6.7777,6.7777,0,0,0,11,17.7778h0A6.7777,6.7777,0,0,0,17.7778,11h0A6.7777,6.7777,0,0,0,11,4.2224Zm0,2.3828A4.3949,4.3949,0,0,1,15.395,11v0A4.3949,4.3949,0,0,1,11,15.395h0A4.3948,4.3948,0,0,1,6.6052,11v0A4.3948,4.3948,0,0,1,11,6.6052Z"/><g id="g5966"><path id="path5923" class="cls-4" d="M10.9953,5.8754a.09.09,0,0,0-.0849.0826l-.0569.5342q-.15.0057-.3.0215l-.13-.5232a.0884.0884,0,0,0-.1749.0231l.0136.5355q-.1441.0259-.2864.0612l-.1968-.5027a.0914.0914,0,0,0-.11-.0564.09.09,0,0,0-.0607.1019l.0834.5319q-.1443.0428-.2855.0949l-.26-.4694a.0912.0912,0,0,0-.1161-.0413.09.09,0,0,0-.0469.1088l.1529.5178q-.1337.06-.2632.1277L8.5543,6.59a.0912.0912,0,0,0-.12-.0259.09.09,0,0,0-.0323.114l.2176.491q-.1269.0807-.2484.17L7.9959,6.95a.0885.0885,0,0,0-.14.1076l.2806.4585q-.1131.0932-.22.1934l-.42-.3358a.091.091,0,0,0-.1229.0063.09.09,0,0,0-.0019.1185l.3392.42q-.104.1087-.2.2244l-.46-.2774a.0913.0913,0,0,0-.1212.0225.09.09,0,0,0,.0138.1176l.39.3708q-.0845.12-.1609.2443l-.495-.2167a.0912.0912,0,0,0-.1172.038.09.09,0,0,0,.0289.115l.4334.3158q-.07.1334-.1311.2711L6.373,8.9946a.0884.0884,0,0,0-.0673.163l.4742.2579q-.0534.1365-.0979.2762l-.53-.08a.0884.0884,0,0,0-.0458.17l.503.1938q-.0338.1464-.0577.2946l-.5394-.0128a.0883.0883,0,0,0-.0229.1747l.52.1282q-.0122.1461-.0148.2929L5.958,10.91a.0883.0883,0,0,0,0,.1762l.5342.06q.0057.15.0215.3l-.5239.1271a.0884.0884,0,0,0,.023.1749l.5363-.0108q.0259.1441.0612.2864l-.5039.1942a.0884.0884,0,0,0,.0456.17l.5328-.0806q.0428.1444.095.2857l-.4707.257a.0883.0883,0,0,0,.0675.1628l.5191-.15q.06.1336.1278.2632l-.4349.3169a.0883.0883,0,0,0,.0881.1526l.4926-.2151q.0806.1269.17.2484l-.3911.3727a.0883.0883,0,0,0,.1074.14l.46-.2783q.093.1131.1934.22l-.3379.4184a.0883.0883,0,0,0,.1246.1246l.4224-.3371q.1088.1039.2243.2l-.28.4587a.0883.0883,0,0,0,.14.1072l.3731-.3885q.12.0843.2445.1609l-.2192.4938a.0883.0883,0,0,0,.1526.0882l.3186-.4321q.1334.07.2711.131l-.1518.517a.0882.0882,0,0,0,.1628.0671l.2607-.4733q.1365.0536.2763.0982l-.0832.5292a.0883.0883,0,0,0,.17.0456l.197-.5024q.1464.0337.2948.0579l-.0129.54a.0884.0884,0,0,0,.1749.0229l.128-.52q.1463.012.2929.0145l.0571.5365a.0884.0884,0,0,0,.1764,0l.06-.5344q.15-.0057.3-.0213l.1271.5239a.0884.0884,0,0,0,.1749-.0233l-.0108-.536q.1442-.026.2864-.0613l.1942.5039a.0884.0884,0,0,0,.17-.0457l-.0806-.5329q.1444-.0426.2857-.0949l.2572.471a.0885.0885,0,0,0,.163-.0679l-.15-.519q.1335-.06.263-.1276l.3171.4349a.0884.0884,0,0,0,.1527-.0883l-.2153-.4926q.1269-.0806.2482-.1694l.3729.391a.0883.0883,0,0,0,.14-.1076l-.2785-.46q.1133-.093.22-.1932l.4184.3379a.0884.0884,0,0,0,.1246-.1248l-.3371-.4222q.1038-.1087.2-.2243l.4586.28a.0884.0884,0,0,0,.1072-.14l-.3884-.3729q.0845-.12.1611-.2443l.4935.219a.0884.0884,0,0,0,.0881-.1528l-.4318-.3182q.07-.1335.1312-.2714l.5167.1519a.0883.0883,0,0,0,.0672-.163l-.4731-.2606q.0536-.1365.0981-.2762l.5293.0832a.0883.0883,0,0,0,.0453-.17l-.5022-.1968q.0341-.1465.0581-.2952l.54.01a.0883.0883,0,0,0,.0229-.1747l-.52-.1252q.012-.1461.0146-.2928l.5364-.06a.0883.0883,0,0,0,0-.1762l-.5343-.0569q-.0058-.15-.0216-.3l.5234-.13a.0882.0882,0,0,0-.0231-.1745l-.5355.0136q-.026-.1441-.0614-.2864l.5029-.1972a.0883.0883,0,0,0-.0455-.17l-.5319.0834q-.0427-.1445-.0949-.2857l.47-.26a.0883.0883,0,0,0-.0675-.1628l-.5179.1529q-.06-.1335-.1279-.263l.4334-.3195a.0883.0883,0,0,0-.0881-.1526l-.4912.2176q-.0805-.1269-.1694-.2482l.3891-.3752a.0883.0883,0,0,0-.1074-.14l-.4585.281q-.0931-.1134-.1936-.22l.3358-.42a.0883.0883,0,0,0-.1246-.1246l-.42.3394q-.1087-.104-.2244-.2l.277-.4605a.0882.0882,0,0,0-.14-.1072l-.3708.39q-.12-.0844-.2443-.1611l.2163-.495a.0883.0883,0,0,0-.1526-.0881l-.3156.4334q-.1333-.07-.2711-.1309l.1488-.5181a.0883.0883,0,0,0-.1628-.0673l-.2579.4744q-.1365-.0534-.2762-.0979l.08-.53a.0883.0883,0,0,0-.17-.0456l-.194.5032q-.1463-.0339-.2945-.0579l.01-.54a.0883.0883,0,0,0-.1748-.0229l-.1252.52q-.1463-.0122-.2929-.0146l-.06-.5364a.0912.0912,0,0,0-.0912-.0826ZM11,7.3615A3.6385,3.6385,0,0,1,14.6385,11v0A3.6385,3.6385,0,0,1,11,14.6385h0a3.6385,3.6385,0,0,1,0-7.277Z"/></g><path id="use1176-5-6" class="cls-5" d="M10.6357,3.1662l-.1925.0065-.1063.8967c-.1355.0106-.2085.0256-.3417.0439l-.244-.85-.19.03.0041.8919q-.2017.041-.3991.0931l-.3414-.8035-.185.053.111.8744q-.1968.0657-.3885.1429L7.93,3.7979l-.1771.0756.2147.8452q-.1337.0637-.2646.1332L7.2005,4.16l-.1687.0934.3.8114q-.1794.11-.3514.2308l-.5785-.62-.1555.1132.3922.7622q-.1655.1319-.3226.2737l-.6436-.54-.1408.1314.4778.7022Q5.86,6.27,5.72,6.4311l-.6982-.453-.1239.1477.5549.6326q-.0932.1221-.1812.2483l-.7364-.3749-.1076.16.6139.5671q-.1125.1844-.2132.3753l-.77-.28-.0875.1718.6735.4847q-.0891.1972-.1662.4007l-.7935-.1831-.0658.1812.7236.3969q-.0645.2079-.1157.4195L3.42,9.2412l-.0433.1875.7644.305q-.0274.154-.0483.3107l-.81,0-.0235.191.7913.2232q-.0155.2175-.0172.4358l-.8026.099v.1925l.8117.1248q.0113.2193.036.4352l-.7838.1959.0232.191.8205.025q.0273.1553.0618.3092l-.7594.2762.0436.1878.8189-.0609q.0606.21.1345.4155l-.7211.3674.0659.1812.8079-.1608q.0867.2017.1856.3969l-.6763.4477.0862.1724.7907-.2533q.0791.1346.164.2655l-.6277.518.1035.1624.7628-.3355q.1286.174.2677.34l-.5627.5931.1226.1486.72-.4282q.1.105.2038.206l-.539.7693.1433.1289.7286-.5954q.1509.1284.3088.248l-.4436.8349.158.1107.655-.6844q.1369.09.2781.174l-.3741.84.1653.0994.6019-.7239q.1782.0907.3615.1712l-.27.8831.1762.0781.5113-.7951q.13.0472.2627.0891l-.1765.91.1831.06.4277-.8487q.1924.0471.3875.0831l-.0649.9311.189.0367.3236-.9q.1355.0158.2715.0263l.0332.9387.1919.0169.2285-.9352q.1252.0014.25-.0017l.2308.9431.1918-.0166.0336-.9518q.1337-.0121.2655-.0289l.3289.9161.1891-.037-.0662-.9524q.1905-.0373.3772-.0853l.44.8722.1831-.06-.1825-.9408q.1258-.0414.25-.0875l.53.8242.1759-.0783-.281-.92q.1753-.0791.3455-.1674l.6293.7571.1655-.0991-.3935-.8838q.1335-.0809.2625-.1674l.69.7208.158-.1107-.4693-.8832q.148-.1143.2894-.236l.7737.632.143-.1288-.5737-.82q.0933-.0922.1834-.1881l.7753.4612.1226-.1486-.6086-.6415q.1293-.1561.2493-.32l.827.364.1035-.1624-.6828-.5634q.0767-.12.1482-.2429l.8616.2759.0859-.1725-.7386-.4894q.0912-.1826.1714-.37l.8848.1759.0655-.1809-.7907-.4035q.0676-.191.1239-.3856l.8994.0671.0433-.1878-.8346-.3041q.0306-.1389.0555-.2788l.902-.0275.0235-.1913-.8628-.2154q.0228-.2009.0339-.4028l.8929-.1377V11l-.8832-.1088q-.0017-.2034-.015-.4038l.8693-.2455L18.67,10.051l-.8888,0q-.0186-.1413-.0426-.2809l.8383-.3346-.0433-.1878L17.65,9.34q-.0475-.1975-.106-.3906l.7907-.4339-.0658-.1809-.8654.1994q-.0712-.19-.1529-.375l.732-.527L17.8951,7.46l-.8349.3035q-.0939-.18-.1978-.353l.6631-.613-.1078-.16-.7923.4035q-.0807-.117-.1658-.2308l.5956-.6791-.1238-.1473-.7462.484q-.1314-.1536-.2718-.2994l.5088-.7471-.141-.1313L15.6,5.8627q-.149-.1366-.3057-.2646l.4135-.8032-.1558-.1132-.6066.65q-.1646-.1175-.3361-.2254l.3129-.8471-.1687-.0934-.5223.7185q-.1248-.0678-.2527-.13L14.2,3.88l-.1771-.0752-.4443.7687q-.1867-.0776-.3787-.1442l.1141-.8945-.1853-.0533-.347.8177q-.1946-.0537-.3935-.0966L12.3923,3.3l-.19-.03-.2452.8544q-.199-.0294-.4019-.0477l-.106-.897-.1925-.0065-.1395.8787c-.06-.0014-.12-.0025-.18-.0025-.0332,0-.1274,0-.1605,0Zm.3009,1.9265A6.0219,6.0219,0,0,1,16.55,8.933a3.2877,3.2877,0,0,1,.2314.8706c0,.4013-.2408.8829-1.5249.8829H12.055a1.4932,1.4932,0,0,1-.8083-.13,1.4965,1.4965,0,0,1-.36-.4352l-.0925-.18-.01-.0217L9.1311,7.1679c-.6613-1.1007-.3727-1.5552-.0288-1.762a1.2856,1.2856,0,0,1,.2708-.1081A6.025,6.025,0,0,1,10.9366,5.0927ZM7.2779,6.613c.3148-.0056.71.2114,1.165.9681l1.59,2.6451a1.7822,1.7822,0,0,1,.2621.8058,2.5,2.5,0,0,1-.3211,1.0434l.016-.0192L8.4429,14.6305c-.6613,1.1007-1.1979,1.0594-1.5418.8528a3.986,3.986,0,0,1-.78-.7722l.1477.2022a6.0188,6.0188,0,0,1-.1414-7.42,3.9632,3.9632,0,0,1,.7738-.7643A.7533.7533,0,0,1,7.2779,6.613Zm3.65,4.1324a.3777.3777,0,0,1,0,.7553h0a.3775.3775,0,0,1-.3777-.3773v-.0005a.3775.3775,0,0,1,.3775-.3775Zm1.1312.7437h3.1969c1.2842,0,1.525.4815,1.525.8828a2.38,2.38,0,0,1-.08.4822,6.03,6.03,0,0,1-6.7773,4.193,3.13,3.13,0,0,1-.8207-.2411c-.34-.2045-.6246-.6524.009-1.7272l1.6648-2.7627c.258-.4468.3373-.5518.4816-.642A1.3246,1.3246,0,0,1,12.0587,11.4891Z"/></g></svg>