<svg height="16px" width="16px" xmlns="http://www.w3.org/2000/svg" viewBox="0 0 16 16"><defs><style>.cls-1{fill:#0280ed;}.cls-2{fill:#025293;}.cls-3{fill:#fff;}</style></defs><g id="svg6"><g id="layer1"><g id="rect51"><path class="cls-1" d="M4.09,1h7.8065A3.1124,3.1124,0,0,1,15,4.1032V11.91A3.09,3.09,0,0,1,11.91,15H4.1032A3.1124,3.1124,0,0,1,1,11.8968V4.09A3.0993,3.0993,0,0,1,4.09,1Z"/></g></g></g><g id="Camada_4" data-name="Camada 4"><path class="cls-2" d="M3.625,12.6133a.8691.8691,0,0,1-.6567-1.4385L8.62,4.6533A.87.87,0,0,1,9.9346,5.792L4.2827,12.3135A.8679.8679,0,0,1,3.625,12.6133Z"/><path class="cls-3" d="M11.8989,5.9489a.7192.7192,0,0,1-.4828-.2069c-.3058-.3343-.0966-.9233-.3058-1.13l-.853-.8437C9.855,3.37,8.7446,2.0967,5.7993,2.8449l.0161.2037A4.6634,4.6634,0,0,1,8.326,4.2138a.504.504,0,0,1,.0161.7365l-.2945.3678L9.2821,6.54s.2575-.3045.338-.3682a.8879.8879,0,0,1,1.1913.0067c.2736.2547.3218.5412.177.6367Z"/><rect class="cls-3" x="10.7215" y="5.9889" width="2.07" height="1.242" rx="0.414" transform="translate(-1.2305 10.2491) rotate(-45)"/></g></svg>