<svg height="16px" width="16px" id="svg6" xmlns="http://www.w3.org/2000/svg" viewBox="0 0 16 16"><defs><style>.cls-1{fill:#2d7fed;}.cls-2{fill:#fff;}</style></defs><path id="rect51" class="cls-1" d="M4.09,1h7.8065A3.1124,3.1124,0,0,1,15,4.1032V11.91A3.09,3.09,0,0,1,11.91,15H4.1032A3.1124,3.1124,0,0,1,1,11.8968V4.09A3.0993,3.0993,0,0,1,4.09,1Z"/><circle class="cls-2" cx="8" cy="8" r="2.1"/><path class="cls-2" d="M8,5.2h4.844a5.5925,5.5925,0,0,0-9.2575-.644l1.67,2.891A2.8,2.8,0,0,1,8,5.2Z"/><path class="cls-2" d="M13.187,5.9h-3.34a2.789,2.789,0,0,1,.5754,3.5h.0028L8.0014,13.6A5.591,5.591,0,0,0,13.187,5.9Z"/><path class="cls-2" d="M8,10.8A2.8,2.8,0,0,1,5.5787,9.4H5.5745l-2.42-4.193a5.5791,5.5791,0,0,0,4.0719,8.33l1.6688-2.884A2.7984,2.7984,0,0,1,8,10.8Z"/></svg>