<svg height="16px" width="16px" id="svg6" xmlns="http://www.w3.org/2000/svg" xmlns:xlink="http://www.w3.org/1999/xlink" viewBox="0 0 16 16"><defs><style>.cls-1{fill:none;}.cls-2{clip-path:url(#clip-path);}.cls-3{fill:#8034a9;}.cls-4{fill:#fff;}</style><clipPath id="clip-path"><path id="rect51" class="cls-1" d="M4.09,1h7.8065A3.1124,3.1124,0,0,1,15,4.1032V11.91A3.09,3.09,0,0,1,11.91,15H4.1032A3.1124,3.1124,0,0,1,1,11.8968V4.09A3.0993,3.0993,0,0,1,4.09,1Z"/></clipPath></defs><g class="cls-2"><rect class="cls-3" width="16" height="16"/><path class="cls-4" d="M12.2608,3.2321a3.59,3.59,0,0,0-2.0142.8209,6.9935,6.9935,0,0,0-2.0108-.2476,7.2206,7.2206,0,0,0-2.0007.2476,3.3424,3.3424,0,0,0-1.8761-.82.5346.5346,0,0,0-.1212.0163,2.8459,2.8459,0,0,0-.073,2.0473A3.0233,3.0233,0,0,0,3.4,7.3705c0,2.9633,1.92,3.6271,3.5932,3.8223a1.8561,1.8561,0,0,0-.4189,1.0921,1.5851,1.5851,0,0,1-2.2529-.4991,1.5865,1.5865,0,0,0-1.1539-.7974s-.7353-.01-.0511.47A2.0361,2.0361,0,0,1,3.9531,12.59s.509,1.36,2.6049.8928c.0021.3628.0038,1.0392.0056,1.6935a8.09,8.09,0,0,0,3.7352-.2032c.0022-.7979.0045-1.74.0045-2.3539a1.8759,1.8759,0,0,0-.5682-1.4319c1.6781-.1913,3.44-.8458,3.44-3.8167a2.99,2.99,0,0,0-.7177-2.0748,2.8456,2.8456,0,0,0-.0746-2.0468.508.508,0,0,0-.1213-.0168Z"/></g></svg>