<svg height="16px" width="16px" id="svg6" xmlns="http://www.w3.org/2000/svg" viewBox="0 0 16 16"><defs><style>.cls-1{fill:#33d17a;}.cls-2{fill:#fff;}</style></defs><path id="rect51" class="cls-1" d="M4.09,1h7.8065A3.1124,3.1124,0,0,1,15,4.1032V11.91A3.09,3.09,0,0,1,11.91,15H4.1032A3.1124,3.1124,0,0,1,1,11.8968V4.09A3.0993,3.0993,0,0,1,4.09,1Z"/><path class="cls-2" d="M4.2223,3.9829l.1833,1.493a7.2178,7.2178,0,0,1,.0983.9712.9909.9909,0,0,1-.1114.4712.6029.6029,0,0,1-.16.1858.4812.4812,0,0,1-.2285.095A.7689.7689,0,0,1,3.61,7.1154,1.4774,1.4774,0,0,0,3.2286,6.98a.6619.6619,0,0,0-.3858.0677.7686.7686,0,0,0-.2881.26,1.9112,1.9112,0,0,0-.1415,1.006,1.0069,1.0069,0,0,0,.2258.5342.684.684,0,0,0,.2386.1752.5765.5765,0,0,0,.2948.0453,2.8874,2.8874,0,0,0,.5983-.146,1.0313,1.0313,0,0,1,.1955-.0721.4677.4677,0,0,1,.2075-.0058.4094.4094,0,0,1,.1944.1061.548.548,0,0,1,.1236.1817,1.2392,1.2392,0,0,1,.0754.43,9.178,9.178,0,0,1-.2021,2.4494,9.5837,9.5837,0,0,0,1.6415.4817.9588.9588,0,0,0,.4986.0171.664.664,0,0,0,.2832-.1423.4606.4606,0,0,0,.1538-.2677A.3185.3185,0,0,0,6.92,11.92a1.1069,1.1069,0,0,0-.0989-.2124c-.078-.1358-.17-.1533-.2-.3061a.6305.6305,0,0,1,.0607-.4036.8348.8348,0,0,1,.28-.3079,1.4846,1.4846,0,0,1,.8154-.21,1.9865,1.9865,0,0,1,.8944.17.7919.7919,0,0,1,.2731.2674c.1669.3338-.02.4958-.1509.7587a.87.87,0,0,0-.1.2746.2974.2974,0,0,0,.05.2338.4458.4458,0,0,0,.1524.1437,1.0239,1.0239,0,0,0,.1948.0864,2.8938,2.8938,0,0,0,1.39.0915,2.7482,2.7482,0,0,0,1.2472-.5481L11.4955,10.48a5.4791,5.4791,0,0,1-.0941-.8925.9543.9543,0,0,1,.1025-.4338.5957.5957,0,0,1,.1418-.1759.4843.4843,0,0,1,.2033-.1028.5659.5659,0,0,1,.2193-.0017,1.154,1.154,0,0,1,.2114.0617,1.8908,1.8908,0,0,0,.4176.1357A.742.742,0,0,0,13.095,9.01a.8221.8221,0,0,0,.3117-.2494,1.6338,1.6338,0,0,0,.184-.9653,1.0127,1.0127,0,0,0-.2654-.58.7906.7906,0,0,0-.271-.1828.7.7,0,0,0-.3254-.049,1.6852,1.6852,0,0,0-.4212.1273,1.2139,1.2139,0,0,1-.2116.0616.57.57,0,0,1-.22,0,.5059.5059,0,0,1-.2768-.1718.6792.6792,0,0,1-.139-.2926,1.78,1.78,0,0,1,.0206-.6459,16.7588,16.7588,0,0,0,.18-2.1663,11.0079,11.0079,0,0,0-2.0038-.424,1.4636,1.4636,0,0,0-.6263.0239.6193.6193,0,0,0-.2635.1633.428.428,0,0,0-.1179.2773.4654.4654,0,0,0,.0488.2086.9836.9836,0,0,0,.1179.1827,1.0444,1.0444,0,0,1,.1982.2825.5411.5411,0,0,1-.2779.7,1.1527,1.1527,0,0,1-.4406.1971,1.7572,1.7572,0,0,1-.4857.0344A1.3829,1.3829,0,0,1,7.07,5.31a1.0615,1.0615,0,0,1-.2507-.36c-.1276-.3781.1325-.57.3122-.797a.511.511,0,0,0,.0151-.2566.4688.4688,0,0,0-.1359-.2327.6587.6587,0,0,0-.2362-.1409,1.4177,1.4177,0,0,0-.5525-.051,5.3638,5.3638,0,0,0-2,.511Z"/></svg>