<svg height="16px" width="16px" id="svg6" xmlns="http://www.w3.org/2000/svg" xmlns:xlink="http://www.w3.org/1999/xlink" viewBox="0 0 32 32"><defs><style>.cls-1,.cls-5{fill:none;}.cls-2{clip-path:url(#clip-path);}.cls-3{fill:#36a1ff;}.cls-4{fill:#e9eef7;}.cls-5{stroke:#000;stroke-linecap:round;stroke-miterlimit:15.1181;stroke-width:1.2136px;}</style><clipPath id="clip-path"><path id="rect849" class="cls-1" d="M8.2094,2.011h15.583A6.2075,6.2075,0,0,1,30,8.2185V23.7937A6.2058,6.2058,0,0,1,23.7942,30H8.2112A6.2075,6.2075,0,0,1,2.0036,23.792V8.2168A6.2058,6.2058,0,0,1,8.2094,2.011Z"/></clipPath></defs><g class="cls-2"><rect class="cls-3" width="32" height="32"/><ellipse class="cls-4" cx="7" cy="14.5" rx="10" ry="16.5"/><path class="cls-4" d="M15,13v6h6.031c.8616,0,1.293-.7471.6838-1.184Z"/></g><g id="g2341"><path id="path2336" class="cls-5" d="M23,21.0289c-2.7978,3.4683-10.7773,3.6236-14,.0333"/></g><rect x="9" y="10.5" width="2" height="3" rx="1" transform="translate(20 24) rotate(180)"/><rect x="21" y="10.5" width="2" height="3" rx="1" transform="translate(44 24) rotate(180)"/></svg>