<svg height="16px" width="16px" id="svg6" xmlns="http://www.w3.org/2000/svg" viewBox="0 0 16 16"><defs><style>.cls-1{fill:#faf8f9;}.cls-2{fill:#2da8da;}.cls-3{fill:#2669bc;}.cls-4{fill:#228bf3;}.cls-5{fill:#1b58a2;}.cls-6{fill:#3acabc;}.cls-7{fill:#62dd9f;}.cls-8{fill:#79f68b;}</style></defs><path id="rect51" class="cls-1" d="M4.09,1h7.8065A3.1124,3.1124,0,0,1,15,4.1032V11.91A3.09,3.09,0,0,1,11.91,15H4.1032A3.1124,3.1124,0,0,1,1,11.8968V4.09A3.0993,3.0993,0,0,1,4.09,1Z"/><circle class="cls-2" cx="8" cy="8" r="4.875"/><path class="cls-3" d="M11.1248,8a8.5694,8.5694,0,0,1-.7265,3.2986,2.6814,2.6814,0,0,1,.77.5689A5.1724,5.1724,0,0,0,12.9993,8Z"/><path class="cls-4" d="M8,8v5c.1764,0,.3682-.7156.5434-.7342.1973-.021.3776.6525.5712.6082A6.0128,6.0128,0,0,0,11.1248,8Z"/><path class="cls-3" d="M8,10.75V13a4.9953,4.9953,0,0,0,1.1146-.126,3.8736,3.8736,0,0,0,1.2837-1.5754A5.48,5.48,0,0,0,8,10.75Z"/><path class="cls-5" d="M10.3987,11.2986A3.8814,3.8814,0,0,1,9.1149,12.874a5.0006,5.0006,0,0,0,2.0537-1.0065A2.6851,2.6851,0,0,0,10.3987,11.2986Z"/><path class="cls-4" d="M8,3c.714,0,.4984.9655,1.1129,1.2347.4262.1867,1.7158-.3849,2.07-.0928A4.9786,4.9786,0,0,1,13,7.992c0,.0277,0-.02-.0007.008H8Z"/><path class="cls-2" d="M9.1146,3.1257a5.0036,5.0036,0,0,1,2.054,1.0065,2.7638,2.7638,0,0,1-.783.5746A3.8831,3.8831,0,0,0,9.1146,3.1257Z"/><path class="cls-2" d="M8,3c.1773,0,.527.6529.7031.6717.1963.0209.2188-.59.4115-.546A6.136,6.136,0,0,1,11.1252,8c0,.0277,0-.0277,0,0H8Z"/><path class="cls-6" d="M8,3a5.0126,5.0126,0,0,1,1.1146.1257,3.8806,3.8806,0,0,1,1.271,1.5811A5.4188,5.4188,0,0,1,8,5.25Z"/><path class="cls-6" d="M4.8752,8a8.57,8.57,0,0,0,.73,3.2986,2.6994,2.6994,0,0,0-.7734.5689A5.1724,5.1724,0,0,1,3.0007,8Z"/><path class="cls-2" d="M8,8v5c-.1756,0-.4766-.8254-.651-.8438-.198-.021-.2692.7623-.4636.7178A6.0128,6.0128,0,0,1,4.8752,8Z"/><path class="cls-4" d="M8,10.75V13a4.9953,4.9953,0,0,1-1.1146-.126,3.8688,3.8688,0,0,1-1.28-1.5754A5.4645,5.4645,0,0,1,8,10.75Z"/><path class="cls-2" d="M5.6048,11.2986a3.8756,3.8756,0,0,0,1.28,1.5754,5.0006,5.0006,0,0,1-2.0537-1.0065A2.7022,2.7022,0,0,1,5.6048,11.2986Z"/><path class="cls-7" d="M8,3c-.6209,0-.776,1.0232-1.3246,1.23-.519.1954-1.4363-.4357-1.8565-.0893A4.9786,4.9786,0,0,0,3,7.992c0,.0277,0-.02.0007.008H8Z"/><path class="cls-8" d="M6.8854,3.1257a5.0036,5.0036,0,0,0-2.054,1.0065,2.7742,2.7742,0,0,0,.7852.5746A3.8787,3.8787,0,0,1,6.8854,3.1257Z"/><path class="cls-6" d="M8,3c-.1732,0-.44,1.2174-.6125,1.2354-.2.0209-.3054-1.1546-.5021-1.11A6.136,6.136,0,0,0,4.8748,8c0,.0277,0-.0277,0,0H8Z"/><path class="cls-7" d="M8,3a5.0126,5.0126,0,0,0-1.1146.1257A3.8758,3.8758,0,0,0,5.6169,4.7068,5.4074,5.4074,0,0,0,8,5.25Z"/></svg>