<svg height="16px" width="16px" id="Camada_1" data-name="Camada 1" xmlns="http://www.w3.org/2000/svg" viewBox="0 0 16 16"><defs><style>.cls-1{fill:#f9f9f9;}.cls-2{fill:#687082;}.cls-3{fill:#e1ecf0;}.cls-4,.cls-6{isolation:isolate;}.cls-4{opacity:0.17;}.cls-5{fill:#8cd5f5;}.cls-6{opacity:0.25;}</style></defs><path class="cls-1" d="M4.3091,1A3.3019,3.3019,0,0,0,1,4.2947H1v7.3962A3.3019,3.3019,0,0,0,4.2947,15h7.3962A3.3019,3.3019,0,0,0,15,11.7053h0V4.3091A3.3019,3.3019,0,0,0,11.7053,1H4.3091Z"/><path class="cls-2" d="M5.75,2.5h4.5A1.28,1.28,0,0,1,11.5,3.8083v7.8792A1.28,1.28,0,0,1,10.2542,13H5.75A1.28,1.28,0,0,1,4.5,11.6917V3.8124A1.28,1.28,0,0,1,5.7459,2.5Z"/><circle class="cls-3" cx="6" cy="7.25" r="0.75"/><circle class="cls-3" cx="8" cy="7.25" r="0.75"/><circle class="cls-3" cx="8" cy="9.25" r="0.75"/><circle class="cls-3" cx="6" cy="9.25" r="0.75"/><circle class="cls-3" cx="10" cy="7.25" r="0.75"/><path class="cls-4" d="M4.5,11.545v.1426A1.28,1.28,0,0,0,5.7459,13H10.25a1.28,1.28,0,0,0,1.25-1.3083V11.545a1.28,1.28,0,0,1-1.2459,1.3124H5.75A1.28,1.28,0,0,1,4.5,11.5491Z"/><path class="cls-5" d="M5.75,3.5h4.5a.4989.4989,0,0,1,.5.4978h0V5.5a.4989.4989,0,0,1-.4978.5H5.75a.4989.4989,0,0,1-.5-.4978h0V4a.4989.4989,0,0,1,.4978-.5H5.75Z"/><path class="cls-6" d="M5.75,3.5a.4989.4989,0,0,0-.5.4978h0v.1208a.499.499,0,0,1,.4978-.5H10.25a.4989.4989,0,0,1,.5.4978h0V4a.4989.4989,0,0,0-.4978-.5H5.75Z"/><circle class="cls-3" cx="6" cy="11.25" r="0.75"/><circle class="cls-3" cx="8" cy="11.25" r="0.75"/><path class="cls-3" d="M10,8.5h0a.75.75,0,0,1,.75.75v2A.75.75,0,0,1,10,12h0a.75.75,0,0,1-.75-.75v-2A.75.75,0,0,1,10,8.5Z"/></svg>