<svg height="16px" width="16px" id="Camada_1" data-name="Camada 1" xmlns="http://www.w3.org/2000/svg" viewBox="0 0 32 32"><defs><style>.cls-1{fill:#f9f9f9;}.cls-2{fill:#1969e0;}.cls-3{fill:#12945e;}.cls-4{fill:#d13321;}.cls-5{fill:#fca90f;}.cls-6{fill:#fff;}</style></defs><rect class="cls-1" x="2" y="2" width="28" height="28" rx="6.5006"/><rect class="cls-2" x="16.8898" y="16.0696" width="7.3714" height="9.1057" rx="3.6857" transform="translate(-8.5553 20.4417) rotate(-44.71)"/><rect class="cls-3" x="7.7384" y="6.8247" width="7.3714" height="9.1057" rx="3.6857" transform="translate(-4.699 11.3288) rotate(-44.7099)"/><rect class="cls-4" x="16.9388" y="6.8723" width="7.3714" height="9.0991" rx="3.6857" transform="translate(27.0163 34.1149) rotate(-134.7084)"/><rect class="cls-5" x="7.6917" y="16.0229" width="7.3714" height="9.1057" rx="3.6857" transform="translate(4.7583 43.1367) rotate(-134.7084)"/><rect class="cls-4" x="12" y="17" width="8" height="10" rx="4"/><rect class="cls-5" x="12" y="5" width="8" height="10" rx="4"/><rect class="cls-3" x="18" y="11" width="8" height="10" rx="4" transform="translate(6 38) rotate(-90)"/><rect class="cls-2" x="6" y="11" width="8" height="10" rx="4" transform="translate(-6 26) rotate(-90)"/><rect class="cls-6" x="13" y="13" width="6" height="6" rx="3"/></svg>