<svg height="16px" width="16px" id="svg6" xmlns="http://www.w3.org/2000/svg" viewBox="0 0 16 16"><defs><style>.cls-1{fill:#4bae4f;}.cls-2{fill:#fff;}</style></defs><path id="rect51" class="cls-1" d="M4.09,1h7.8065A3.1124,3.1124,0,0,1,15,4.1032V11.91A3.09,3.09,0,0,1,11.91,15H4.1032A3.1124,3.1124,0,0,1,1,11.8968V4.09A3.0993,3.0993,0,0,1,4.09,1Z"/><path class="cls-2" d="M4.2223,3.9829l.1833,1.493a7.2221,7.2221,0,0,1,.0983.9712.991.991,0,0,1-.1114.4712.6025.6025,0,0,1-.16.1858.4819.4819,0,0,1-.2285.095.7693.7693,0,0,1-.394-.0837A1.4774,1.4774,0,0,0,3.2286,6.98a.6614.6614,0,0,0-.3858.0677.7683.7683,0,0,0-.2881.26,1.91,1.91,0,0,0-.1415,1.006,1.0067,1.0067,0,0,0,.2258.5342.6842.6842,0,0,0,.2386.1752.5768.5768,0,0,0,.2948.0453,2.8849,2.8849,0,0,0,.5983-.146A1.0331,1.0331,0,0,1,3.9662,8.85a.4675.4675,0,0,1,.2075-.0058.4087.4087,0,0,1,.1944.1061.5485.5485,0,0,1,.1236.1817,1.2387,1.2387,0,0,1,.0754.43,9.175,9.175,0,0,1-.2021,2.4494,9.5812,9.5812,0,0,0,1.6415.4817.9587.9587,0,0,0,.4986.0171.6641.6641,0,0,0,.2832-.1423.4605.4605,0,0,0,.1538-.2677A.3183.3183,0,0,0,6.92,11.92a1.1085,1.1085,0,0,0-.0989-.2124c-.078-.1358-.17-.1533-.2-.3061a.6305.6305,0,0,1,.0607-.4036.8345.8345,0,0,1,.28-.3079,1.4843,1.4843,0,0,1,.8154-.21,1.9876,1.9876,0,0,1,.8944.17.7916.7916,0,0,1,.2731.2674c.1669.3338-.02.4958-.1509.7587a.869.869,0,0,0-.1.2746.2974.2974,0,0,0,.05.2338.4461.4461,0,0,0,.1524.1437,1.0211,1.0211,0,0,0,.1948.0864,2.8946,2.8946,0,0,0,1.39.0915,2.7477,2.7477,0,0,0,1.2472-.5481l-.2327-1.478a5.48,5.48,0,0,1-.0941-.8925.9541.9541,0,0,1,.1025-.4338.596.596,0,0,1,.1418-.1759.4844.4844,0,0,1,.2033-.1028.5659.5659,0,0,1,.2193-.0017,1.1508,1.1508,0,0,1,.2114.0617,1.8934,1.8934,0,0,0,.4176.1357A.7415.7415,0,0,0,13.095,9.01a.8221.8221,0,0,0,.3117-.2494,1.634,1.634,0,0,0,.184-.9653,1.0129,1.0129,0,0,0-.2654-.58.7911.7911,0,0,0-.271-.1828.6989.6989,0,0,0-.3254-.049,1.6808,1.6808,0,0,0-.4212.1273,1.215,1.215,0,0,1-.2116.0616.57.57,0,0,1-.22,0,.5061.5061,0,0,1-.2768-.1718.6793.6793,0,0,1-.139-.2926,1.78,1.78,0,0,1,.0206-.6459,16.77,16.77,0,0,0,.18-2.1663,11.0111,11.0111,0,0,0-2.0038-.424,1.4628,1.4628,0,0,0-.6263.0239.619.619,0,0,0-.2635.1633.4281.4281,0,0,0-.1179.2773.4646.4646,0,0,0,.0488.2086.9843.9843,0,0,0,.1179.1827,1.0426,1.0426,0,0,1,.1982.2825.5411.5411,0,0,1-.2779.7,1.1526,1.1526,0,0,1-.4406.1971,1.7564,1.7564,0,0,1-.4857.0344A1.3829,1.3829,0,0,1,7.07,5.31a1.0621,1.0621,0,0,1-.2507-.36c-.1276-.3781.1325-.57.3122-.797a.5113.5113,0,0,0,.0151-.2566.4684.4684,0,0,0-.1359-.2327.6572.6572,0,0,0-.2362-.1409,1.4174,1.4174,0,0,0-.5525-.051,5.3634,5.3634,0,0,0-2,.511Z"/></svg>