<svg height="16px" width="16px" id="svg2536" xmlns="http://www.w3.org/2000/svg" xmlns:xlink="http://www.w3.org/1999/xlink" viewBox="0 0 16 16"><defs><style>.cls-1{fill:#27292d;}.cls-2{fill:#5d5d5d;}.cls-3{fill:#c8ced0;}.cls-4{fill:url(#Gradiente_sem_nome_8);}</style><radialGradient id="Gradiente_sem_nome_8" cx="159.3891" cy="6.0181" r="0.3757" gradientTransform="matrix(0.9607, 0, 0, -0.9607, -145.1274, 13.7818)" gradientUnits="userSpaceOnUse"><stop offset="0" stop-color="#27282c"/><stop offset="1" stop-color="#27282c"/></radialGradient></defs><g id="layer1"><path id="rect849-5" class="cls-1" d="M4.1042,1h7.7915A3.1041,3.1041,0,0,1,15,4.1041v7.7917A3.1042,3.1042,0,0,1,11.8957,15H4.1041A3.1041,3.1041,0,0,1,1,11.8959V4.1042A3.1042,3.1042,0,0,1,4.1042,1Z"/><path id="path2497-2" class="cls-2" d="M6.9357,1q.0179.1815.0194.3641A4.0363,4.0363,0,0,1,6.682,2.8113c-.0066.0193-.0139.0389-.0216.0589A4.03,4.03,0,0,1,1,4.9137v.691q.1738.0813.3539.1482c-.0365.5415-.0891.7529.1557.8347.2119.0708.293-.1176.51-.6472a4.6857,4.6857,0,0,0,.53.0709c.1.5992.1325.8051.3606.7825.2562-.0254.2527-.2425.3365-.7755a4.6855,4.6855,0,0,0,.5343-.07c.22.5371.3009.7269.5141.6557.2448-.0819.1922-.293.1557-.835a4.6761,4.6761,0,0,0,.4862-.1975c.3661.4629.4949.6247.6815.4965.2118-.1456.1046-.334-.0786-.84a4.6609,4.6609,0,0,0,.432-.3306c.4529.3439.6185.4643.7649.2963.1666-.1914.02-.3476-.2756-.7785a4.6782,4.6782,0,0,0,.3159-.4035c.5528.1954.7479.2631.8371.0558.1-.2317-.0849-.3368-.4924-.6522a4.6627,4.6627,0,0,0,.2139-.5079c.5815.054.7872.0713.823-.1512.04-.2494-.1655-.3056-.6395-.5126a4.6467,4.6467,0,0,0,.07-.5512c.5587-.0732.76-.1046.7462-.3261-.0161-.2534-.23-.2613-.7442-.36L7.591,1Z"/><path id="path2485-2" class="cls-2" d="M7.7432,4.6826l-.3791.05a.0637.0637,0,0,0-.0422.0246.0726.0726,0,0,0-.0127.047l.0082.4726a2.8109,2.8109,0,0,0-.783.3282l-.3231-.34A.0649.0649,0,0,0,6.1691,5.24a.0632.0632,0,0,0-.0471.0126l-.3036.2327a.0637.0637,0,0,0-.0245.0423.0759.0759,0,0,0,.0127.0473l.2343.41a2.8109,2.8109,0,0,0-.51.6732l-.4453-.131a.0659.0659,0,0,0-.0488,0,.0638.0638,0,0,0-.0343.0347l-.1465.3532a.0637.0637,0,0,0,0,.0487.0762.0762,0,0,0,.0347.0347l.4075.2374A2.8146,2.8146,0,0,0,5.1891,8c.0005.024.0014.0481.0026.0721l-.4543.11a.0651.0651,0,0,0-.0425.0242.0627.0627,0,0,0-.0124.047l.05.3791a.0642.0642,0,0,0,.0243.0426.0764.0764,0,0,0,.0473.0124l.474.0019a2.8118,2.8118,0,0,0,.3273.7772l-.3383.3219a.0649.0649,0,0,0-.0245.0423.0639.0639,0,0,0,.0127.0473l.2327.3033a.0636.0636,0,0,0,.0422.0246.0754.0754,0,0,0,.047-.0127L5.9852,9.96a2.8118,2.8118,0,0,0,.674.51l-.1307.4442a.0646.0646,0,0,0,0,.0487.0631.0631,0,0,0,.0344.0346l.3532.1465a.064.064,0,0,0,.049,0A.0763.0763,0,0,0,7,11.11l.2371-.4071A2.808,2.808,0,0,0,8,10.8109c.0246-.0006.0492-.0014.0738-.0026l.11.4543a.0636.0636,0,0,0,.0715.0549l.3791-.05a.0635.0635,0,0,0,.0423-.0243.0766.0766,0,0,0,.0127-.0473l.0019-.4743a2.81,2.81,0,0,0,.758-.3169l.3442.3265c.0894.0118.0261.0223.0422.0245a.0633.0633,0,0,0,.0471-.0127l.3036-.2327a.0636.0636,0,0,0,.0243-.0422.0738.0738,0,0,0-.0127-.047l-.242-.4031a2.8089,2.8089,0,0,0,.5034-.6589l.4616.1107c.0833-.0344.034.0063.049,0a.0629.0629,0,0,0,.0344-.0343l.1465-.3532a.0647.0647,0,0,0,0-.0491.0731.0731,0,0,0-.0347-.0343l-.4154-.23A2.8127,2.8127,0,0,0,10.8107,8l-.002-.0527.4538-.1344c.0549-.0714.0323-.0113.0422-.0242a.0629.0629,0,0,0,.0127-.047l-.05-.38a.0633.0633,0,0,0-.0243-.0422.0733.0733,0,0,0-.0473-.0124l-.4726.0082a2.81,2.81,0,0,0-.3179-.7638l.3276-.3453c.0118-.0894.0221-.0261.0242-.0423a.0638.0638,0,0,0-.0126-.0473l-.2324-.3033a.0633.0633,0,0,0-.0423-.0245.0743.0743,0,0,0-.0473.0126l-.4042.2428a2.81,2.81,0,0,0-.658-.503l.111-.4628c-.0344-.0833.0062-.0337,0-.0488a.0631.0631,0,0,0-.0344-.0346L9.0839,4.849a.0632.0632,0,0,0-.0487,0,.0726.0726,0,0,0-.0346.0344l-.2307.416a2.811,2.811,0,0,0-.77-.11l-.0507.0016-.1344-.4535c-.0714-.0549-.0116-.0326-.0245-.0425a.0627.0627,0,0,0-.047-.0124ZM8,5.7822A2.2179,2.2179,0,1,1,5.782,8,2.218,2.218,0,0,1,8,5.7822Z"/><path id="path2689" class="cls-2" d="M13.07,9.2059c-.2571.0217-.2561.24-.3482.774a4.7061,4.7061,0,0,0-.5181.0714c-.228-.55-.3075-.7419-.5228-.6691-.2476.0837-.19.2959-.1515.8529a4.7037,4.7037,0,0,0-.48.1982c-.3845-.4644-.5165-.6254-.7018-.4917-.2092.1508-.0967.3367.0989.8417a4.6977,4.6977,0,0,0-.4176.3223c-.4845-.3582-.6513-.4829-.7991-.3086-.1677.1977-.0116.3508.3032.8a4.6555,4.6555,0,0,0-.3141.4074c-.5079-.1889-.6952-.299-.8432-.0878-.1309.1868.0315.3167.4989.6932a4.67,4.67,0,0,0-.2014.484c-.5343-.0507-.7434-.107-.8312.1343-.0773.2123.111.2972.6484.5345a4.6478,4.6478,0,0,0-.0667.5124c-.5268.102-.7431.1071-.7593.3633-.0141.2226.1883.2531.7533.3271L8.4216,15h.6427q-.018-.1815-.02-.3639a4.036,4.036,0,0,1,4.036-4.036h0A4.0355,4.0355,0,0,1,15,11.0862v-.7041q-.1871-.0862-.3813-.1557c.05-.6006.0692-.8081-.1567-.8424-.2533-.0384-.3047.1713-.5151.6623a4.7015,4.7015,0,0,0-.53-.0659c-.09-.5881-.1206-.7934-.347-.7743Z"/><g id="g2609"><g id="g2507"><path id="path2497" class="cls-3" d="M7.9888,2.57c-.2571.0218-.2559.2394-.3481.7738a4.7063,4.7063,0,0,0-.5181.0715c-.228-.55-.3074-.7419-.5228-.6691-.2476.0837-.19.2961-.1515.853a4.6961,4.6961,0,0,0-.48.1982c-.3845-.4644-.5164-.6255-.7017-.4918-.2092.1508-.0967.3368.0989.8418a4.6846,4.6846,0,0,0-.4177.3223c-.4846-.3583-.6513-.483-.7991-.3087-.1677.1977-.0115.3508.3033.8a4.6857,4.6857,0,0,0-.3141.4074c-.5079-.1888-.6952-.2989-.8432-.0877-.1309.1868.0314.3167.4989.6931a4.66,4.66,0,0,0-.2015.4841c-.5343-.0506-.7434-.1069-.8312.1344-.0773.2124.1112.297.6485.5343a4.6525,4.6525,0,0,0-.0666.5125c-.5268.102-.7432.1071-.76.3633-.0141.2226.1884.253.7534.327a4.6739,4.6739,0,0,0,.075.5449c-.484.2121-.6922.2663-.6518.5181.0361.2242.2427.205.8346.15a4.6573,4.6573,0,0,0,.2092.5041c-.4127.32-.6.424-.4994.6569.09.21.286.1395.8514-.06a4.7088,4.7088,0,0,0,.3059.395c-.3113.457-.4667.6117-.2958.808.1491.1712.3145.0457.7872-.3134a4.6883,4.6883,0,0,0,.4186.3228c-.1894.5274-.3034.7162-.0877.8645.189.13.3169-.0349.6938-.5115l-.0922-.0549a4.689,4.689,0,0,0,.55.2352c-.0365.5416-.089.7527.1558.8346.2119.0708.2929-.1176.51-.6472a4.7051,4.7051,0,0,0,.53.0709c.1.5991.1326.805.3607.7824.2562-.0254.2528-.2424.3366-.7754a4.6852,4.6852,0,0,0,.5343-.07c.22.537.3007.7268.5139.6555.2449-.0818.1923-.293.1558-.835a4.7066,4.7066,0,0,0,.4862-.1974c.366.4628.495.6248.6816.4965.2118-.1456.1046-.334-.0786-.84a4.66,4.66,0,0,0,.432-.33c.4529.3439.6184.4643.7647.2963.1666-.1914.02-.3476-.2754-.7785a4.6507,4.6507,0,0,0,.3157-.4034c.5529.1953.7481.263.8374.0556.1-.2316-.085-.3367-.4926-.6521a4.6529,4.6529,0,0,0,.2139-.508c.5815.0539.7873.0715.823-.1511.04-.2493-.1654-.3057-.6393-.5127a4.6674,4.6674,0,0,0,.07-.5512c.5587-.0732.76-.1046.7461-.326-.016-.2535-.23-.2615-.7442-.36a4.649,4.649,0,0,0-.0715-.52c.5281-.2333.7151-.3189.6384-.53-.0871-.2393-.2951-.1858-.82-.1355a4.6638,4.6638,0,0,0-.2031-.4914c.4582-.369.6187-.5.489-.6847-.1474-.21-.3348-.1017-.8378.0856a4.6874,4.6874,0,0,0-.3232-.4172c.34-.48.4583-.65.2828-.7923-.1971-.16-.3481-.0085-.77.3023a4.67,4.67,0,0,0-.4273-.327c.2249-.5489.3034-.7408.1-.8406-.2346-.115-.3437.0762-.7082.4979A4.7033,4.7033,0,0,0,9.538,3.59c.05-.6005.069-.808-.1569-.8422-.2534-.0385-.3047.1713-.5151.6623a4.7,4.7,0,0,0-.53-.0661c-.09-.5881-.1207-.7934-.3471-.7743ZM7.8019,4.005a4.353,4.353,0,0,1,1.3334.1707,3.9464,3.9464,0,0,1,2.36,1.8875,2.0729,2.0729,0,0,1,.2606.6037.7794.7794,0,0,1-.1016.6066.6418.6418,0,0,1-.4322.2962c-.5861.0549-1.3808.0239-2.008.0171A.3806.3806,0,0,1,8.9774,7.51c-.1858-.1171-.3109-.372-.5181-.4438-.3308-.1533-.4648-.0247-.6514-.2543-.3437-.5514-.6763-1.1179-.9815-1.6805a.6954.6954,0,0,1,.258-.9781,1.3608,1.3608,0,0,1,.7174-.148Zm-2.31,1.1873a.6044.6044,0,0,1,.0816.0028.642.642,0,0,1,.47.2313c.3355.4837.6985,1.1913,1,1.741a.3809.3809,0,0,1,.049.2442c-.0108.2194-.1716.4534-.1325.6692.0288.3634.2067.4169.0983.6921-.3118.57-.6424,1.138-.9828,1.68a.6953.6953,0,0,1-.9787.2552c-.4058-.1706-.9509-1.4512-.9868-1.7981a3.9464,3.9464,0,0,1,.4865-2.9826,2.07,2.07,0,0,1,.3982-.5233.8117.8117,0,0,1,.4966-.212Zm4.637,3.2321c.3254.0017.65.0083.9694.02a.6953.6953,0,0,1,.71.72c.0551.4368-.7812,1.5491-1.0637,1.7536a3.9462,3.9462,0,0,1-2.8263,1.07,2.0694,2.0694,0,0,1-.6522-.0832.7787.7787,0,0,1-.47-.396.6424.6424,0,0,1-.035-.523c.2512-.5324.6827-1.2006,1.0079-1.7369a.3809.3809,0,0,1,.1869-.1644c.1954-.1.4784-.0782.6458-.22.3-.2067.2579-.3874.55-.4311.3248-.0075.6513-.0108.9767-.0092Z"/><circle id="circle2503" class="cls-4" cx="7.9996" cy="8" r="0.3609"/></g></g></g></svg>