<svg height="16px" width="16px" id="svg6" xmlns="http://www.w3.org/2000/svg" viewBox="0 0 16 16"><defs><style>.cls-1{fill:#faf8f9;}.cls-2{fill:#2fa14c;}.cls-3{fill:#fcbd16;}.cls-4{fill:#e74536;}.cls-5{fill:#fff;}.cls-6{fill:#2d7fed;}</style></defs><path id="rect51" class="cls-1" d="M4.09,1h7.8065A3.1124,3.1124,0,0,1,15,4.1032V11.91A3.09,3.09,0,0,1,11.91,15H4.1032A3.1124,3.1124,0,0,1,1,11.8968V4.09A3.0993,3.0993,0,0,1,4.09,1Z"/><path class="cls-2" d="M3.1548,10.8118A5.5738,5.5738,0,0,0,7.6787,13.6c1.9353-1.0682,2.9615-2.4255,2.46-4.27a2.4988,2.4988,0,0,1-.8834.8642c-.5995.3465-1.1546-.0175-1.7725-.18-.6264-.1645-1.314-.1337-1.6648-.7421L3.32,4.94a5.5839,5.5839,0,0,0-.1646,5.8714Z"/><path class="cls-3" d="M8.0757,5.2c.4055.011.8122.3986,1.19.6166.6451.3729.5846,1.11.7273,1.7828.1243.5867.7456,1.1778.4211,1.7405L7.69,13.5849l.0724.0041a5.5794,5.5794,0,0,0,.6659-.0068q.0623-.0069.1244-.0151c.1771-.0173.3535-.0439.5277-.0779q.1284-.0251.2557-.0561c.1472-.036.2922-.0793.4361-.1271q.108-.034.2146-.0725a5.5792,5.5792,0,0,0,.5743-.2543q.1143-.0623.2256-.13c.1241-.0712.2461-.1458.365-.2269q.1106-.0747.2174-.1545c.141-.1066.2772-.221.4088-.3418q.0546-.0471.108-.0957a5.5794,5.5794,0,0,0,.4716-.52q.0453-.0582.0889-.1176a5.6858,5.6858,0,0,0,.3787-.5606l.0328-.0546A5.8942,5.8942,0,0,0,13.5992,7.97c.0023-.1312-.0094-.2606-.0151-.3911A5.6,5.6,0,0,0,12.8417,5.2Z"/><path class="cls-4" d="M8.0005,2.4q-.14.0013-.2789.01a5.8854,5.8854,0,0,0-2.774.8969,5.6,5.6,0,0,0-1.925,2.14l2.584,4.0086A3.0754,3.0754,0,0,1,5.4808,8.12c-.0364-.7442.6149-1.0928,1.1033-1.5777C7.01,6.12,7.17,5.2787,7.8187,5.2464l5.0435-.0123A5.6,5.6,0,0,0,8.0005,2.4Z"/><path class="cls-5" d="M10.8005,8h0a2.8,2.8,0,0,0-2.8-2.8h0a2.8,2.8,0,0,0-2.8,2.8h0a2.8,2.8,0,0,0,2.8,2.8h0A2.8,2.8,0,0,0,10.8005,8Z"/><path class="cls-6" d="M10.1005,8h0a2.1,2.1,0,0,0-2.1-2.1h0a2.1,2.1,0,0,0-2.1,2.1h0a2.1,2.1,0,0,0,2.1,2.1h0A2.1,2.1,0,0,0,10.1005,8Z"/></svg>