<svg height="16px" width="16px" id="svg6" xmlns="http://www.w3.org/2000/svg" viewBox="0 0 32 32"><defs><style>.cls-1{fill:#16b1f2;}.cls-2{fill:#dbe8fa;}.cls-3{fill:none;stroke:#000;stroke-linecap:round;stroke-miterlimit:15.1181;stroke-width:1.25px;}</style></defs><g id="layer1"><path id="rect849" class="cls-1" d="M8.2058,2.011h15.583a6.2075,6.2075,0,0,1,6.2075,6.2075V23.7937A6.2058,6.2058,0,0,1,23.7906,30H8.2075A6.2075,6.2075,0,0,1,2,23.792V8.2168A6.2058,6.2058,0,0,1,8.2058,2.011Z"/><path id="path2191" class="cls-2" d="M16.0018,2h7.7907A6.1944,6.1944,0,0,1,30,8.2083V23.7917A6.1944,6.1944,0,0,1,23.7925,30H18.4634a63.3476,63.3476,0,0,1-1.4683-10.59c-.0966-.9156-.2409-1.1306-.8619-1.1553l-2.6726-.1062c-.681-.0527-.7529-1.0458-.7088-1.8688C13.0807,12.0888,14.4982,7.0769,16.0018,2Z"/><g id="g2341"><path id="path2336" class="cls-3" d="M8.6959,20.9836c2.9186,3.5272,11.2427,3.6852,14.6045.0339"/></g><rect x="21" y="10.5" width="2" height="3" rx="1"/><rect x="9" y="10.5" width="2" height="3" rx="1"/></g></svg>