<svg height="16px" width="16px" id="Camada_1" data-name="Camada 1" xmlns="http://www.w3.org/2000/svg" viewBox="0 0 32 32"><defs><style>.cls-1{fill:#c3ccd0;}.cls-2{fill:#030000;}.cls-3{fill:#1a211f;}.cls-4{fill:#a1fbe6;isolation:isolate;opacity:0.35;}.cls-5{fill:#c1fdee;}</style></defs><rect class="cls-1" x="2" y="2" width="28" height="28" rx="6.5008"/><rect class="cls-2" x="3.0012" y="3.0157" width="25.9969" height="25.9685" rx="5.4998"/><g id="layer1"><rect id="rect2809-5" class="cls-3" x="4.7951" y="4.81" width="22.4101" height="22.4101" rx="3.8972"/><path id="path2811-3" class="cls-4" d="M9.2785,4.81V6.302H6.1015V5.7968c-.0493.0438-.1.0869-.1465.1332v.372H5.6257q-.056.0714-.1084.1456H5.955v3.178h-1.16v.1465h1.16v3.177h-1.16v.1465h1.16v3.178h-1.16v.1456h1.16v3.178h-1.16v.1465h1.16v3.178h-1.16v.1455h1.16V26.1c.0469.0463.0972.0893.1465.1332V23.0673h3.177v3.1779H6.1158c.0571.05.115.1.175.1466H9.2785V27.22H9.425v-.8278h3.178V27.22h.1456v-.8278h3.178V27.22h.1465v-.8278h3.178V27.22h.1455v-.8278h3.178V27.22h.1465v-.8278h2.9877c.06-.047.118-.0962.1751-.1466H22.7211V23.0673h3.1771v3.1656c.0492-.0439.0995-.0869.1465-.1333V23.0672h1.16v-.1455h-1.16v-3.178h1.16v-.1465h-1.16v-3.178h1.16v-.1456h-1.16v-3.178h1.16v-.1465h-1.16V9.7721h1.16V9.6256h-1.16V6.4476h.4377c-.0352-.0494-.0711-.098-.1085-.1456h-.3292V5.93c-.047-.0463-.0973-.0894-.1465-.1332V6.302H22.7211V4.81h-.1465V6.302h-3.178V4.81H19.251V6.302H16.0731V4.81h-.1466V6.302H12.7486V4.81H12.603V6.302H9.425V4.81ZM6.1015,6.4476h3.177V9.6255H6.1015Zm3.3236,0H12.603V9.6255H9.4251Zm3.3235,0h3.178V9.6255h-3.178Zm3.3245,0h3.178V9.6255h-3.178Zm3.3236,0h3.178V9.6255h-3.178Zm3.3245,0h3.1771V9.6255H22.7212ZM6.1016,9.7721H9.2787v3.177H6.1016Zm3.3236,0h3.178v3.177H9.4252Zm3.3236,0h3.178v3.177h-3.178Zm3.3245,0h3.178v3.177h-3.178Zm3.3236,0h3.1779v3.177H19.3969Zm3.3245,0h3.177v3.177h-3.177Zm-16.62,3.3236h3.177v3.1779H6.1018Zm3.3236,0h3.1779v3.1779H9.4254Zm3.3235,0h3.178v3.1779h-3.178Zm3.3245,0h3.178v3.1779h-3.178Zm3.3236,0h3.178v3.1779H19.397Zm3.3245,0h3.1771v3.1779H22.7215Zm-16.62,3.3235H9.279v3.178H6.1019Zm3.3236,0h3.178v3.178H9.4255Zm3.3236,0H15.927v3.178H12.7491Zm3.3245,0h3.178v3.178h-3.178Zm3.3236,0h3.1779v3.178H19.3972Zm3.3245,0h3.177v3.178h-3.177Zm-16.62,3.3245h3.177v3.178H6.1021Zm3.3235,0h3.178v3.178H9.4256Zm3.3236,0h3.178v3.178h-3.178Zm3.3245,0h3.178v3.178h-3.178Zm3.3236,0h3.178v3.178h-3.178Zm3.3245,0h3.1771v3.178H22.7218ZM9.4256,23.0673h3.178v3.178H9.4256Zm3.3236,0h3.178v3.178h-3.178Zm3.3245,0h3.178v3.178h-3.178Zm3.3236,0h3.178v3.178h-3.178Z"/><path id="path2815-6" class="cls-5" d="M13.606,9.7816c-.0493.0076-.0885.08-.1408.234-.1012.2981-.125.7272-.2579,4.73a29.7005,29.7005,0,0,1-.3539,4.3931c-.17.5013-.4545.3447-1.1675-.6442a10.75,10.75,0,0,0-.9229-1.1513c-.2425-.2136-.27-.2148-.5158-.0343a1.5378,1.5378,0,0,0-.4139.609c-.2186.5946-.5185.9163-.9353,1.0038A16.6143,16.6143,0,0,1,6.622,18.85l-1.8268-.14c0,.1144.001.2292.0009.3435l.9572.0923c.5739.056,1.5957.1028,2.27.1028,1.43,0,1.6747-.113,1.9924-.9172a2.0527,2.0527,0,0,1,.2969-.5681c.2108-.1459.5032.0964,1.1028.9144a7.2341,7.2341,0,0,0,.8725,1.0324c.3358.2464.6531.1187.82-.33a25.6342,25.6342,0,0,0,.41-4.6347c.061-1.96.1134-2.4171.2511-2.1675a14.4188,14.4188,0,0,1,.255,2.6233c.02.3448.11,1.5507.2,2.6794.3015,3.7887.41,4.4648.6984,4.3578a3.5277,3.5277,0,0,0,.3653-1.7108,3.4451,3.4451,0,0,1,.157-.941c.1676-.449.2491-.4659,1.2389-.2616.8986.1854,1.0889.0688,1.4748-.903.5182-1.305.5381-1.337.8373-1.3759.2332-.03.3724.0773.81.6271,1.6061,2.0186,1.7882,2.0988,2.6595,1.176a2.9985,2.9985,0,0,1,.6365-.57,2.92,2.92,0,0,1,.6346.5128,1.9268,1.9268,0,0,0,1.1722.5672.2355.2355,0,0,0,0-.471c-.4265.1665-.83-.23-1.0485-.4377-.7223-.69-.9614-.6825-1.569.0561-.6867.8348-.7194.8228-2.0019-.7793-1.3175-1.6457-1.6226-1.6248-2.2389.1532a3.8472,3.8472,0,0,1-.4748.963c-.23.2705-.2565.2755-.8307.1427-.8689-.201-1.2045-.1747-1.4424.1113a1.573,1.573,0,0,0-.2655.4558c-.0746.2635-.218.2679-.2883.0086a30.6746,30.6746,0,0,1-.3121-3.1066c-.0741-1.389-.4486-5.8138-.5233-6.1811a.9877.9877,0,0,0-.2026-.4406c-.0416-.0386-.0751-.0569-.1047-.0523Z"/></g></svg>