<svg height="16px" width="16px" id="svg1478" xmlns="http://www.w3.org/2000/svg" viewBox="0 0 16 16"><defs><style>.cls-1{fill:#c2cdd0;}.cls-2{fill:#3f4343;}.cls-3{fill:#3e4242;}.cls-4{fill:#8f9596;}.cls-5{fill:#c5d1d5;fill-rule:evenodd;}</style></defs><g id="layer1"><rect id="rect849" class="cls-1" x="1" y="1" width="14" height="14" rx="3.1042"/><circle id="path1106" class="cls-2" cx="8.0204" cy="8" r="5.976"/><path id="path1168" class="cls-3" d="M8,3.2557A4.7443,4.7443,0,0,0,3.2557,8h0A4.7444,4.7444,0,0,0,8,12.7445H8A4.7444,4.7444,0,0,0,12.7444,8h0A4.7443,4.7443,0,0,0,8,3.2557ZM8,4.9236A3.0765,3.0765,0,0,1,11.0765,8V8A3.0764,3.0764,0,0,1,8,11.0765H8A3.0764,3.0764,0,0,1,4.9236,8h0A3.0764,3.0764,0,0,1,8,4.9236Z"/><g id="g5966"><path id="path5923" class="cls-4" d="M7.9967,4.4128a.0631.0631,0,0,0-.0594.0578l-.04.3739q-.1053.004-.21.0151l-.0909-.3662a.0618.0618,0,0,0-.1224.0161l.0095.3748q-.1009.0183-.2.0429l-.1378-.3519a.0638.0638,0,0,0-.0767-.0394.0631.0631,0,0,0-.0425.0713l.0583.3723q-.101.03-.2.0665l-.1817-.3287a.0638.0638,0,0,0-.0813-.0288.0628.0628,0,0,0-.0328.0761l.107.3625q-.0934.0417-.1842.0893L6.288,4.9132a.0619.0619,0,0,0-.107.0617l.1524.3437q-.089.0564-.1739.1187l-.2624-.2725a.0638.0638,0,0,0-.0859-.0068.063.063,0,0,0-.0121.0821l.1964.321q-.0792.0651-.1541.1354l-.2942-.2351a.0619.0619,0,0,0-.0874.0874l.2375.2941q-.0728.0762-.14.1571l-.3222-.1942a.0638.0638,0,0,0-.0848.0158.063.063,0,0,0,.01.0823l.2732.26q-.0591.0837-.1126.171l-.3465-.1516a.0638.0638,0,0,0-.0821.0266.063.063,0,0,0,.02.08l.3033.2211q-.0489.0933-.0917.19l-.3624-.1045A.0619.0619,0,0,0,4.714,6.71l.332.18q-.0375.0956-.0686.1934L4.6065,7.028a.0618.0618,0,0,0-.032.1192l.3521.1357q-.0237.1025-.04.2062L4.5086,7.48a.0618.0618,0,0,0-.016.1223l.3637.09q-.0086.1023-.01.205l-.3754.04a.0618.0618,0,0,0,0,.1234l.3739.0419q.004.1053.0151.21l-.3668.0889a.0619.0619,0,0,0,.0162.1224l.3753-.0075q.0183.101.0429.2l-.3527.1359a.0619.0619,0,0,0,.0319.1193l.373-.0564q.03.1011.0664.2l-.3294.18a.0618.0618,0,0,0,.0472.1139l.3634-.1052q.0417.0936.0894.1842L4.912,9.71a.0618.0618,0,0,0,.0617.1068l.3448-.1506q.0564.0888.1187.1739l-.2737.2608a.0618.0618,0,0,0,.0752.0979l.3223-.1949q.0651.0792.1354.1541l-.2366.2929a.0618.0618,0,0,0,.0873.0872l.2956-.236q.0762.0727.157.14l-.1957.3211a.0618.0618,0,0,0,.0979.0751l.2611-.272q.0838.0591.1712.1126l-.1534.3457a.0618.0618,0,0,0,.1068.0617l.223-.3024q.0933.0489.19.0917l-.1063.3619a.0618.0618,0,0,0,.114.0469l.1825-.3312q.0956.0374.1934.0687l-.0583.37a.0618.0618,0,0,0,.1192.0319l.1379-.3517q.1024.0237.2063.04l-.009.3779a.0618.0618,0,0,0,.1224.016l.09-.3638q.1024.0084.2051.01l.04.3755a.0619.0619,0,0,0,.1235,0l.0418-.3741q.1053-.0039.21-.0149l.0889.3667a.0619.0619,0,0,0,.1224-.0162l-.0075-.3753q.101-.0182.2-.0429l.1359.3528a.0619.0619,0,0,0,.1193-.0321l-.0564-.3729q.1011-.03.2-.0665l.18.33a.0619.0619,0,0,0,.1141-.0475l-.1054-.3633q.0935-.0417.1841-.0894l.222.3045a.0619.0619,0,0,0,.1069-.0619l-.1507-.3447q.0888-.0564.1738-.1186l.261.2737a.0618.0618,0,0,0,.0978-.0753l-.195-.3223q.0794-.0651.1542-.1353l.2929.2366a.0619.0619,0,0,0,.0872-.0874l-.236-.2955q.0727-.0762.14-.157l.321.1957a.0618.0618,0,0,0,.075-.098l-.2718-.2611q.0591-.0835.1127-.171l.3455.1533a.0618.0618,0,0,0,.0617-.1069L10.7844,9.49q.049-.0935.0918-.19l.3617.1063a.0618.0618,0,0,0,.047-.1141l-.3311-.1824q.0375-.0956.0687-.1934l.37.0582a.0618.0618,0,0,0,.0318-.1192l-.3515-.1378q.0237-.1026.0406-.2066l.378.0068a.0617.0617,0,0,0,.016-.1222l-.3641-.0877q.0084-.1023.01-.205l.3755-.0421a.0618.0618,0,0,0,0-.1233l-.374-.04q-.0041-.1052-.0151-.21l.3663-.091a.0617.0617,0,0,0-.0161-.1222l-.3748.01q-.0183-.101-.0431-.2006l.3521-.138a.0618.0618,0,0,0-.0319-.1191l-.3723.0583q-.03-.101-.0665-.2l.3287-.1818a.0618.0618,0,0,0-.0473-.114l-.3625.1071q-.0417-.0934-.0895-.1841l.3034-.2237a.0618.0618,0,0,0-.0617-.1068l-.3438.1524q-.0564-.089-.1186-.1738l.2724-.2626a.0618.0618,0,0,0-.0752-.0978l-.321.1966q-.0652-.0794-.1355-.1543l.2351-.2943a.0619.0619,0,0,0-.0873-.0873l-.2941.2376q-.0762-.0727-.1571-.14l.1939-.3223a.0617.0617,0,0,0-.0978-.075l-.2595.2732q-.0837-.0592-.171-.1128l.1514-.3465A.0618.0618,0,0,0,9.71,4.912l-.2209.3034q-.0935-.0491-.19-.0916l.1041-.3627A.0617.0617,0,0,0,9.29,4.714l-.1806.3321q-.0954-.0375-.1933-.0686l.0561-.3711a.0618.0618,0,0,0-.1191-.0319l-.1358.3522q-.1025-.0237-.2062-.0405l.0069-.3779a.0638.0638,0,0,0-.0559-.0656.0631.0631,0,0,0-.0665.05l-.0877.364q-.1023-.0084-.205-.01l-.0419-.3755a.0638.0638,0,0,0-.0638-.0578ZM8,5.4531A2.5468,2.5468,0,0,1,10.5469,8V8A2.5468,2.5468,0,0,1,8,10.5469H8A2.5469,2.5469,0,0,1,8,5.4531Z"/></g><path id="use1176-5-6" class="cls-5" d="M7.745,2.5163,7.61,2.5209l-.0744.6277c-.0948.0074-.1459.0179-.2392.0307l-.1707-.5947-.1332.021.0028.6244q-.1413.0286-.2794.0652l-.239-.5625-.13.0371.0777.6121q-.1377.0459-.2719.1l-.3022-.5234-.124.0529.15.5917q-.0936.0446-.1853.0933L5.34,3.2118l-.118.0654.21.568q-.1257.077-.2461.1615l-.4049-.4339-.1088.0792.2745.5335q-.1158.0924-.2258.1916l-.45-.3779-.0986.092.3345.4916q-.1044.1063-.2022.219l-.4887-.3171-.0867.1033.3885.4429q-.0652.0855-.1269.1738l-.5155-.2625L3.4,5.0542l.43.397q-.0786.129-.1492.2627l-.5392-.1962-.0612.12.4714.3393q-.0624.138-.1164.2805L2.8793,6.13l-.0461.1269.5065.2778q-.0452.1455-.081.2937l-.5644-.0591L2.664,6.9l.535.2135q-.0192.1079-.0338.2175l-.5666,0-.0165.1337.554.1562q-.0108.1524-.0121.3051l-.5618.0693V8.13l.5681.0873q.008.1536.0253.3046L2.6069,8.66l.0163.1336.5743.0176q.0192.1086.0432.2164L2.7092,9.22l.03.1315.5732-.0426q.0425.1468.0942.2908l-.5048.2572.0461.1269.5656-.1126q.0606.1411.13.2778l-.4734.3134.06.1207.5534-.1773q.0554.0942.1148.1859l-.4393.3625.0724.1137.5339-.2348q.09.1216.1875.2376l-.394.4153.0858.104.5039-.3q.07.0737.1427.1442l-.3773.5386.1.09.51-.4168q.1056.09.2162.1736l-.3105.5844.1106.0775L5.3,12.0032q.0959.0632.1947.1218l-.2618.5884.1156.0695.4214-.5067q.1248.0636.253.12l-.1887.6183.1233.0546.358-.5565q.0914.033.1839.0623l-.1236.6373.1282.0417L6.803,12.66q.1349.033.2713.0582l-.0454.6518.1323.0256.2265-.63q.0948.0109.19.0184l.0233.6571.1343.0118.16-.6546q.0876.0009.1753-.0012l.1616.66.1343-.0116.0235-.6663q.0934-.0084.1858-.02l.23.6413.1323-.0259-.0463-.6667q.1334-.0261.264-.06l.3077.6106.1282-.0417-.1278-.6586q.0881-.0289.1749-.0613l.3711.577.1232-.0549-.1967-.6441q.1227-.0553.2419-.1172l.44.53.1159-.0693-.2754-.6187q.0933-.0567.1837-.1172l.483.5045.1106-.0774-.3285-.6182q.1036-.08.2025-.1653l.5417.4424.1-.09-.4016-.5741q.0654-.0645.1284-.1317l.5427.3229.0859-.104-.426-.4491q.09-.1094.1745-.2238l.5789.2548.0724-.1137-.478-.3944q.0537-.084.1038-.17l.6031.1932.06-.1207-.517-.3426q.0639-.1278.12-.2592l.6194.1231.0458-.1266L12.5114,9.58q.0474-.1336.0867-.27l.63.047.03-.1315-.5843-.2128q.0215-.0972.0389-.1951l.6314-.0193.0164-.1339-.6039-.1508q.0159-.1405.0237-.282l.625-.0963V8l-.6182-.0761q-.0012-.1425-.0105-.2827l.6085-.1718-.0164-.1337-.6222,0q-.013-.099-.03-.1967l.5869-.2341-.03-.1315-.6182.0648q-.0333-.1384-.0742-.2735l.5535-.3037-.0461-.1267-.6057.14q-.05-.1331-.1071-.2625l.5124-.3689-.0612-.12-.5844.2124q-.0657-.1258-.1385-.2471l.4642-.429-.0755-.1117-.5546.2824q-.0565-.0819-.1161-.1615l.417-.4754-.0867-.1031-.5223.3388q-.0921-.1075-.19-.21l.3562-.5229-.0988-.092-.4771.4q-.1043-.0957-.214-.1852l.29-.5623-.1091-.0792-.4246.4551q-.1152-.0822-.2353-.1577l.219-.593-.118-.0654-.3657.503q-.0873-.0475-.1769-.0913l.1554-.6121-.124-.0527-.3109.5382Q9.6743,3.447,9.54,3.4l.08-.6261-.13-.0373-.2429.5723q-.1362-.0375-.2754-.0676L8.9746,2.61l-.1332-.021L8.67,3.187q-.1394-.0206-.2814-.0334l-.0742-.6278L8.18,2.5211l-.0977.6152c-.042-.001-.0839-.0018-.1262-.0018-.0232,0-.0892,0-.1123,0Zm.2106,1.3486a4.2154,4.2154,0,0,1,3.9291,2.6882,2.3007,2.3007,0,0,1,.1619.6094c0,.2809-.1685.618-1.0674.618H8.7385A1.0455,1.0455,0,0,1,8.1727,7.69a1.0476,1.0476,0,0,1-.2519-.3046L7.856,7.2589l-.0068-.0152L6.6918,5.3175c-.463-.7705-.2609-1.0886-.02-1.2334a.902.902,0,0,1,.19-.0757A4.2215,4.2215,0,0,1,7.9556,3.8649ZM5.3945,4.9291c.22-.0039.4973.148.8156.6777L7.3227,7.4584a1.2466,1.2466,0,0,1,.1835.564,1.7516,1.7516,0,0,1-.2247.73l.0112-.0134L6.21,10.5414c-.4629.77-.8385.7415-1.0793.5969a2.7933,2.7933,0,0,1-.546-.54l.1034.1415a4.2133,4.2133,0,0,1-.099-5.1942,2.7732,2.7732,0,0,1,.5416-.535A.5272.5272,0,0,1,5.3945,4.9291ZM7.9493,7.8218a.2644.2644,0,0,1,0,.5287h0a.2643.2643,0,0,1-.2645-.2641v0a.2644.2644,0,0,1,.2643-.2642Zm.7918.5206h2.2378c.899,0,1.0675.3371,1.0675.618a1.6635,1.6635,0,0,1-.0562.3375A4.222,4.222,0,0,1,7.2461,12.233a2.1955,2.1955,0,0,1-.5745-.1688c-.2381-.1431-.4372-.4567.0063-1.209L7.8433,8.9213c.1806-.3128.2361-.3863.3371-.45A.928.928,0,0,1,8.7411,8.3424Z"/></g></svg>