<svg height="16px" width="16px" id="Camada_1" data-name="Camada 1" xmlns="http://www.w3.org/2000/svg" viewBox="0 0 16 16"><defs><style>.cls-1{fill:#202020;}.cls-2{fill:#7d868f;}.cls-3{fill:#cad2d9;}.cls-4,.cls-6{isolation:isolate;}.cls-4{opacity:0.5;}.cls-5{fill:#36c3f2;}.cls-6{opacity:0.25;}</style></defs><path class="cls-1" d="M4.3091,1A3.3019,3.3019,0,0,0,1,4.2947v7.3962A3.3019,3.3019,0,0,0,4.2947,15h7.3962A3.3019,3.3019,0,0,0,15,11.7053V4.3091A3.3019,3.3019,0,0,0,11.7053,1H4.3091Z"/><path class="cls-2" d="M5.75,2.5h4.5A1.28,1.28,0,0,1,11.5,3.8083l0,.0041v7.8751A1.28,1.28,0,0,1,10.2542,13L10.25,13H5.75A1.28,1.28,0,0,1,4.5,11.6917l0-.0044V3.8124A1.28,1.28,0,0,1,5.7459,2.5Z"/><circle class="cls-3" cx="6" cy="7.25" r="0.75"/><circle class="cls-3" cx="8" cy="7.25" r="0.75"/><circle class="cls-3" cx="8" cy="9.25" r="0.75"/><circle class="cls-3" cx="6" cy="9.25" r="0.75"/><circle class="cls-3" cx="10" cy="7.25" r="0.75"/><path class="cls-4" d="M4.5,11.545v.1426A1.28,1.28,0,0,0,5.7459,13L5.75,13h4.5a1.28,1.28,0,0,0,1.25-1.3083l0-.0042V11.545a1.28,1.28,0,0,1-1.2459,1.3124l-.0041,0H5.75A1.28,1.28,0,0,1,4.5,11.5491Z"/><path class="cls-5" d="M5.75,3.5h4.5a.4989.4989,0,0,1,.5.4978V5.5a.4989.4989,0,0,1-.4978.5H5.75a.4989.4989,0,0,1-.5-.4978V4a.4989.4989,0,0,1,.4978-.5Z"/><path class="cls-6" d="M5.75,3.5a.4989.4989,0,0,0-.5.4978v.1208a.499.499,0,0,1,.4978-.5H10.25a.4989.4989,0,0,1,.5.4978V4a.4989.4989,0,0,0-.4978-.5H5.75Z"/><circle class="cls-3" cx="6" cy="11.25" r="0.75"/><circle class="cls-3" cx="8" cy="11.25" r="0.75"/><rect class="cls-3" x="9.25" y="8.5" width="1.5" height="3.5" rx="0.75"/></svg>