<svg  height="16px" width="16px" id="svg6" xmlns="http://www.w3.org/2000/svg" viewBox="0 0 16 16"><defs><style>.cls-1{fill:#fe6600;}.cls-2{fill:#fff;}</style></defs><path id="rect51" class="cls-1" d="M4.09,1h7.8065A3.1124,3.1124,0,0,1,15,4.1032V11.91A3.09,3.09,0,0,1,11.91,15H4.1032A3.1124,3.1124,0,0,1,1,11.8968V4.09A3.0993,3.0993,0,0,1,4.09,1Z"/><circle class="cls-2" cx="8" cy="8" r="5.5"/><path class="cls-1" d="M9.8135,4.5547a2.4891,2.4891,0,0,0-1.625-.4756,3.5468,3.5468,0,0,0-1.5078.3223,2.6223,2.6223,0,0,0-1.07.8535l.74.7685a2.6456,2.6456,0,0,1,.834-.6718A2.1378,2.1378,0,0,1,8.1768,5.1a1.1667,1.1667,0,0,1,.7636.2227.7712.7712,0,0,1,.2676.6259,1.2088,1.2088,0,0,1-.2168.6905,2.1291,2.1291,0,0,1-.6523.5879,1.8464,1.8464,0,0,0-.66.6845,1.917,1.917,0,0,0-.2207.9375v.5157H8.5107V8.9238a1.0475,1.0475,0,0,1,.1719-.583A1.7041,1.7041,0,0,1,9.1982,7.85a2.7889,2.7889,0,0,0,.8946-.87,2.0568,2.0568,0,0,0,.2968-1.085A1.6362,1.6362,0,0,0,9.8135,4.5547Z"/><path class="cls-1" d="M8.0049,10.3311a.7707.7707,0,0,0-.5606.23.7958.7958,0,1,0,1.125,1.126.7934.7934,0,0,0-.5644-1.3564Z"/></svg>