<svg height="16px" width="16px" id="svg6" xmlns="http://www.w3.org/2000/svg" viewBox="0 0 16 16"><defs><style>.cls-1{fill:#0d89da;}.cls-2{fill:#fff;}</style></defs><path id="rect51" class="cls-1" d="M4.09,1h7.8065A3.1124,3.1124,0,0,1,15,4.1032V11.91A3.09,3.09,0,0,1,11.91,15H4.1032A3.1124,3.1124,0,0,1,1,11.8968V4.09A3.0993,3.0993,0,0,1,4.09,1Z"/><path class="cls-2" d="M9.8135,4.5547a2.4889,2.4889,0,0,0-1.625-.4756,3.5472,3.5472,0,0,0-1.5078.3223,2.6227,2.6227,0,0,0-1.07.8535l.74.7685a2.6457,2.6457,0,0,1,.834-.6718A2.1372,2.1372,0,0,1,8.1768,5.1a1.1666,1.1666,0,0,1,.7636.2227.7712.7712,0,0,1,.2676.6259,1.2091,1.2091,0,0,1-.2168.6905,2.1285,2.1285,0,0,1-.6523.5879,1.8461,1.8461,0,0,0-.66.6845,1.9176,1.9176,0,0,0-.2207.9375v.5157H8.5107V8.9238a1.047,1.047,0,0,1,.1719-.583A1.7041,1.7041,0,0,1,9.1982,7.85a2.79,2.79,0,0,0,.8946-.87A2.0573,2.0573,0,0,0,10.39,5.895,1.6362,1.6362,0,0,0,9.8135,4.5547Z"/><path class="cls-2" d="M8.0049,10.3311a.7706.7706,0,0,0-.5606.23.8018.8018,0,1,0,.5606-.23Z"/></svg>