<svg height="16px" width="16px" id="svg6" xmlns="http://www.w3.org/2000/svg" viewBox="0 0 32 32"><defs><style>.cls-1{fill:#f5e7da;}.cls-2{fill:#6b5f48;}.cls-2,.cls-3,.cls-4,.cls-5,.cls-6{fill-rule:evenodd;}.cls-3{fill:#fff;}.cls-4{fill:#161616;}.cls-5{fill:#2e2e2e;}.cls-6{fill:#252525;}.cls-7{fill:#ffac38;}.cls-8{fill:#9e9e9e;}.cls-9{fill:#242424;}.cls-10{fill:none;}</style></defs><path id="rect51" class="cls-1" d="M8.1805,2h15.613A6.2247,6.2247,0,0,1,30,8.2065V23.82A6.18,6.18,0,0,1,23.82,30H8.2065A6.2247,6.2247,0,0,1,2,23.7935V8.1805A6.1986,6.1986,0,0,1,8.1805,2Z"/><path class="cls-2" d="M24.8791,5.6049a.49.49,0,0,0-.4383.1886,1.2785,1.2785,0,0,0-.2231.44A5.6767,5.6767,0,0,1,22.4,8.8528,11.58,11.58,0,0,1,14.7246,12c-2.4416.0286-3.9255-1.4184-4.8991-3.3476C9.5825,8.1709,9.2,7.2737,9.2,7.8446v.8827l-.0124,4.5682.0248.06A1.64,1.64,0,0,1,9.2,14.4977c-.2311.6556-1.3141,1.6122-3.351,2.2244l-.249.0741.0473.2626a3.9888,3.9888,0,0,0,1.2282,1.9556,13.0451,13.0451,0,0,0,2.5916,1.9531,15.529,15.529,0,0,0,7.3082,2.2309,7.5934,7.5934,0,0,0,6.7742-3.36c1.67-2.502,2.4847-7.2771,1.8175-13.4963h-.0012a1.2761,1.2761,0,0,0-.1261-.4443.508.508,0,0,0-.3606-.2881Z"/><path class="cls-3" d="M11.6,11.6a2.8843,2.8843,0,0,0-1.9189.7,2.7369,2.7369,0,0,0-.8806,2.1A2.7347,2.7347,0,0,0,9.6806,16.5a2.98,2.98,0,0,0,3.8378,0A2.7353,2.7353,0,0,0,14.4,14.4005a2.7375,2.7375,0,0,0-.8816-2.1A2.8845,2.8845,0,0,0,11.6,11.6Z"/><path class="cls-4" d="M11.2,19.7558c1.0972,0,2.0975.056,3.0049,0a7.0784,7.0784,0,0,0,3.502-.7862,2.088,2.088,0,0,1-.3624-.7783,3.6413,3.6413,0,0,1,1.295.934c.4415.578-.1554.9341-.2709,1.6736-.2572-.6495-.418-.8931-.483-1.1512A2.8821,2.8821,0,0,1,15.53,20.7989a13.37,13.37,0,0,1-4.33-1.042Z"/><path class="cls-5" d="M6.3861,12.8A2.719,2.719,0,0,0,5.97,12.83a2.32,2.32,0,0,0-.9832.39c-1.1525.8074-1.456,2.6374-.0325,4.5536S8.2606,19.9872,9.4131,19.18s1.4571-2.6374.0336-4.5537A3.9917,3.9917,0,0,0,6.3861,12.8Z"/><path class="cls-3" d="M16.4,11.6a2.8843,2.8843,0,0,0-1.9189.7,2.7369,2.7369,0,0,0-.8806,2.1A2.7347,2.7347,0,0,0,14.4806,16.5a2.98,2.98,0,0,0,3.8378,0A2.7353,2.7353,0,0,0,19.2,14.4005a2.7375,2.7375,0,0,0-.8816-2.1A2.8845,2.8845,0,0,0,16.4,11.6Z"/><path class="cls-6" d="M17.2,13.6a1.2316,1.2316,0,0,0-.82.3008,1.2546,1.2546,0,0,0,0,1.7984,1.2689,1.2689,0,0,0,1.6406,0,1.2546,1.2546,0,0,0,0-1.7984A1.2316,1.2316,0,0,0,17.2,13.6Z"/><path class="cls-7" d="M22.7658,22.9568l.4833-.9626a29.6688,29.6688,0,0,0-5.1548-2.65l-.529.2907S20.6131,22.3378,22.7658,22.9568Z"/><path class="cls-8" d="M22.7826,21.1826l-.252.1658a1.626,1.626,0,0,0-.5765.5961,2.0354,2.0354,0,0,0-.215,1.0746l.3653-.0626s1.9069.5471,2.81.8348l.1056-.2034.3717-.7195L22.7826,21.532Z"/><path class="cls-9" d="M28,26.4c-.6413-2.0837-.8688-3.7381-2.5447-3.5909-1.3506.1187-1.4451,1.9709-.05,2.4821C26.75,25.7835,28,26.4,28,26.4Z"/><rect class="cls-10" width="32" height="32"/><path class="cls-6" d="M12.4,13.6a1.2316,1.2316,0,0,0-.82.3008,1.2546,1.2546,0,0,0,0,1.7984,1.2689,1.2689,0,0,0,1.6406,0,1.2546,1.2546,0,0,0,0-1.7984A1.2316,1.2316,0,0,0,12.4,13.6Z"/></svg>