<svg height="16px" width="16px" xmlns="http://www.w3.org/2000/svg" viewBox="0 0 16 16"><defs><style>.cls-1{fill:#2e2e2e;}.cls-2{fill:#fff;}.cls-3{fill:#ff4747;}.cls-4{isolation:isolate;opacity:0.1;}.cls-5,.cls-6{fill:none;stroke:#4f4f4f;stroke-linecap:round;stroke-linejoin:round;}.cls-5{stroke-width:0.7px;}.cls-6{stroke-width:1.05px;}.cls-7{fill:#4f4f4f;}</style></defs><g id="svg6"><g id="layer1"><path id="rect51" class="cls-1" d="M4.09,1h7.8065A3.1124,3.1124,0,0,1,15,4.1032V11.91A3.09,3.09,0,0,1,11.91,15H4.1032A3.1124,3.1124,0,0,1,1,11.8968V4.09A3.0993,3.0993,0,0,1,4.09,1Z"/></g></g><g id="Camada_4" data-name="Camada 4"><path class="cls-2" d="M8,2.5A5.5,5.5,0,1,0,13.5,8,5.5037,5.5037,0,0,0,8,2.5Z"/><path class="cls-3" d="M8.1191,7.8711l-.2382.2578,4.0371,3.7256c.0817-.0831.1589-.1707.2353-.2588Z"/><path class="cls-4" d="M7.9951,8.15a.35.35,0,0,0-.1562.0391L3.69,10.3389a.35.35,0,0,0-.15.4715l0,0a.35.35,0,0,0,.4715.15l0,0,4.15-2.15a.35.35,0,0,0-.166-.66Z"/><path class="cls-5" d="M3.85,10.15,8,8"/><path class="cls-4" d="M9.9883,4.5a.5248.5248,0,0,0-.47.2656L7.5439,8.24a.5249.5249,0,0,0,.9122.52l1.9755-3.4756a.525.525,0,0,0-.1972-.7158h0A.5254.5254,0,0,0,9.9883,4.5Z"/><path class="cls-6" d="M8,8,9.975,4.525"/><path class="cls-4" d="M8,7.5a1,1,0,1,0,1,1A1.0006,1.0006,0,0,0,8,7.5Z"/><path class="cls-7" d="M8,7A1,1,0,1,0,9,8,1.0006,1.0006,0,0,0,8,7Z"/><path class="cls-2" d="M8,7.25A.75.75,0,1,0,8.75,8,.7505.7505,0,0,0,8,7.25Z"/></g></svg>