<svg  height="16px" width="16px" id="Camada_1" data-name="Camada 1" xmlns="http://www.w3.org/2000/svg" viewBox="0 0 32 32"><defs><style>.cls-1{fill:#ececec;}.cls-2{fill:#3d3f42;}.cls-3{fill:#d7d7d5;}.cls-4{fill:#fa9811;}.cls-5{isolation:isolate;opacity:0.5;}.cls-6{fill:#5f6367;}</style></defs><path class="cls-1" d="M8.6182,2A6.6038,6.6038,0,0,0,2,8.6182V23.3818A6.6038,6.6038,0,0,0,8.6182,30H23.3818A6.6038,6.6038,0,0,0,30,23.3818V8.6182A6.6038,6.6038,0,0,0,23.3818,2Z"/><path class="cls-2" d="M11.5,5h9A2.5591,2.5591,0,0,1,23,7.6249v15.75A2.5591,2.5591,0,0,1,20.5,26h-9A2.5591,2.5591,0,0,1,9,23.3746V7.6249A2.5591,2.5591,0,0,1,11.5,5Z"/><circle class="cls-3" cx="12" cy="14.5" r="1.5"/><circle class="cls-3" cx="16" cy="14.5" r="1.5"/><circle class="cls-3" cx="16" cy="18.5" r="1.5"/><circle class="cls-3" cx="12" cy="18.5" r="1.5"/><circle class="cls-4" cx="20" cy="14.5" r="1.5"/><path class="cls-5" d="M9,23.09v.2851A2.5591,2.5591,0,0,0,11.5,26h9A2.5591,2.5591,0,0,0,23,23.3751V23.09a2.5591,2.5591,0,0,1-2.5,2.6249h-9A2.5591,2.5591,0,0,1,9,23.09Z"/><path class="cls-3" d="M11.9505,21h4.099A1.4759,1.4759,0,0,1,17.5,22.5h0A1.4759,1.4759,0,0,1,16.0495,24h-4.099a1.4759,1.4759,0,0,1-1.45-1.5h0A1.4759,1.4759,0,0,1,11.9505,21Z"/><path class="cls-6" d="M11.5,7h9a.9978.9978,0,0,1,1,1v3a.9978.9978,0,0,1-1,1h-9a.9978.9978,0,0,1-1-1V8A.9978.9978,0,0,1,11.5,7Z"/><path class="cls-5" d="M11.5,7a.9978.9978,0,0,0-1,1v.2373a.9978.9978,0,0,1,1-1h9a.9978.9978,0,0,1,1,1V8a.9978.9978,0,0,0-1-1Z"/><circle class="cls-4" cx="20" cy="18.5" r="1.5"/><circle class="cls-4" cx="20" cy="22.5" r="1.5"/></svg>