<svg height="16px" width="16px" id="Camada_1" data-name="Camada 1" xmlns="http://www.w3.org/2000/svg" viewBox="0 0 32 32"><defs><style>.cls-1{fill:#f9f9f9;}.cls-2{fill:#71c2a4;}.cls-3{fill:#f3674e;}.cls-4{fill:#efe235;}.cls-5{fill:#997dc3;}.cls-6{fill:#6ca7dc;}.cls-7{fill:#fbba3f;}.cls-8{fill:#b5d55c;}.cls-9{fill:#d95d8b;}</style></defs><rect class="cls-1" x="2" y="2" width="28" height="28" rx="6.5006"/><rect class="cls-2" x="16.966" y="16.0755" width="8" height="9.8823" rx="3.8022" transform="translate(-8.7197 20.8301) rotate(-44.7092)"/><rect class="cls-3" x="7.034" y="6.0422" width="8" height="9.8823" rx="3.8022" transform="translate(-4.5346 10.9402) rotate(-44.7092)"/><rect class="cls-4" x="17.0192" y="6.094" width="8" height="9.8751" rx="3.801" transform="translate(27.9664 33.7303) rotate(-134.7092)"/><rect class="cls-5" x="6.9834" y="16.0248" width="8" height="9.8823" rx="3.8022" transform="translate(3.81 43.5214) rotate(-134.7092)"/><rect class="cls-6" x="12" y="17" width="8" height="11" rx="4"/><rect class="cls-7" x="12" y="4" width="8" height="11" rx="4"/><rect class="cls-8" x="18.5" y="10.5" width="8" height="11" rx="4" transform="translate(6.5 38.5) rotate(-90)"/><rect class="cls-9" x="5.5" y="10.5" width="8" height="11" rx="4" transform="translate(-6.5 25.5) rotate(-90)"/><rect class="cls-1" x="14" y="14" width="4" height="4" rx="2"/></svg>