<svg height="22px" width="22px" id="svg6" xmlns="http://www.w3.org/2000/svg" xmlns:xlink="http://www.w3.org/1999/xlink" viewBox="0 0 22 22"><defs><style>.cls-1{fill:none;}.cls-2{clip-path:url(#clip-path);}.cls-3{fill:#8034a9;}.cls-4{fill:#fff;}</style><clipPath id="clip-path"><path id="rect51" class="cls-1" d="M5.4147,1H16.5668A4.4462,4.4462,0,0,1,21,5.4332V16.5853A4.4147,4.4147,0,0,1,16.5853,21H5.4332A4.4462,4.4462,0,0,1,1,16.5668V5.4147A4.4277,4.4277,0,0,1,5.4147,1Z"/></clipPath></defs><g class="cls-2"><rect class="cls-3" x="-0.4286" y="-0.4286" width="22.8571" height="22.8571"/><path class="cls-4" d="M17.0869,4.1887A5.1285,5.1285,0,0,0,14.21,5.3615a9.9947,9.9947,0,0,0-2.8726-.3538,10.315,10.315,0,0,0-2.8582.3538C6.9369,4.2893,6.149,4.173,5.7986,4.19a.7623.7623,0,0,0-.1732.0232,4.0657,4.0657,0,0,0-.1043,2.9248,4.3187,4.3187,0,0,0-1.0926,2.9632c0,4.2334,2.743,5.1816,5.1331,5.46a2.6533,2.6533,0,0,0-.5984,1.56,2.2644,2.2644,0,0,1-3.2183-.7132,2.2665,2.2665,0,0,0-1.6485-1.1391s-1.05-.0135-.073.6715a2.9081,2.9081,0,0,1,1.1953,1.6163S5.9459,19.5,8.94,18.8324c.0029.5183.0054,1.4846.008,2.4194a11.5585,11.5585,0,0,0,5.3361-.29c.0031-1.14.0064-2.4857.0064-3.3627a2.68,2.68,0,0,0-.8118-2.0456c2.3973-.2733,4.9141-1.2082,4.9141-5.4524a4.2715,4.2715,0,0,0-1.0252-2.964,4.0652,4.0652,0,0,0-.1067-2.924.722.722,0,0,0-.1732-.024Z"/></g></svg>