<svg height="16px" width="16px" id="svg1478" xmlns="http://www.w3.org/2000/svg" viewBox="0 0 16 16"><defs><style>.cls-1{fill:#cbd0d1;}.cls-2{fill:#363b3b;}.cls-3{fill:#303333;}.cls-4{fill:#8f9596;}.cls-5{fill:#d8e0e3;fill-rule:evenodd;}</style></defs><g id="layer1"><rect id="rect849" class="cls-1" x="1" y="1" width="14" height="14" rx="3.1042"/><circle id="path1106" class="cls-2" cx="8" cy="8" r="6"/><path id="path1168" class="cls-3" d="M7.98,3.2366A4.7634,4.7634,0,0,0,3.2162,8h0A4.7634,4.7634,0,0,0,7.98,12.7636h0A4.7635,4.7635,0,0,0,12.743,8V8h0A4.7635,4.7635,0,0,0,7.98,3.2366Zm0,1.6746A3.0889,3.0889,0,0,1,11.0684,8h0A3.0889,3.0889,0,0,1,7.98,11.0889h0A3.0887,3.0887,0,0,1,4.8908,8V8h0A3.0887,3.0887,0,0,1,7.98,4.9112Z"/><g id="g5966"><path id="path5923" class="cls-4" d="M7.6619,4.4124a.0633.0633,0,0,0-.0543.063L7.6,4.8529q-.105.0132-.2087.0335l-.123-.3583a.062.062,0,0,0-.121.0268l.0423.374q-.0993.0272-.1962.0605L6.825,4.65a.0642.0642,0,0,0-.08-.0327.0633.0633,0,0,0-.0362.075L6.8,5.0591q-.0984.0389-.1942.084l-.21-.3128a.0641.0641,0,0,0-.0839-.0217.0631.0631,0,0,0-.0261.079l.1388.3532q-.09.05-.1764.1055l-.25-.2837a.0622.0622,0,0,0-.1017.0711l.1826.33q-.0841.0642-.1635.134l-.2864-.25a.064.064,0,0,0-.0865.0008.0632.0632,0,0,0-.0049.0831l.2246.3039q-.0735.072-.1423.1489l-.3148-.2093a.0621.0621,0,0,0-.08.095l.2633.2734q-.0662.0825-.1262.1694l-.3393-.166a.064.064,0,0,0-.0834.0232.0632.0632,0,0,0,.0172.0814l.296.2361q-.0517.089-.0976.1809l-.36-.1212a.064.064,0,0,0-.08.0338.0633.0633,0,0,0,.0271.0782l.3227.1946q-.0408.0976-.0751.1981L4.6175,6.88a.0622.0622,0,0,0-.0376.1177l.3479.1509q-.0291.099-.0517.1995L4.5,7.3252a.062.062,0,0,0-.0216.122l.3641.1049q-.0147.1046-.0219.21l-.3789.024a.0621.0621,0,0,0-.0053.1238l.3717.0581q0,.1031.0079.2059l-.3719.0729a.0621.0621,0,0,0,.0108.1235l.3776.0091q.0132.105.0335.2087l-.3591.1211a.0622.0622,0,0,0,.027.121l.3747-.04q.0271.0995.06.1963l-.3408.1668a.0621.0621,0,0,0,.0423.1165L5.039,9.18q.0389.0985.0839.1942l-.3137.2089a.0621.0621,0,0,0,.0572.11l.3542-.137q.05.09.1056.1764l-.2853.2486a.0621.0621,0,0,0,.0711.1014l.3316-.1808q.0642.0838.134.1635l-.2509.2848a.0621.0621,0,0,0,.0838.0914l.3053-.2232q.072.0735.1489.1422l-.211.3137a.0621.0621,0,0,0,.095.08l.275-.262q.0825.0662.1693.1263l-.1676.3383a.0621.0621,0,0,0,.1045.0666l.2373-.295q.0889.0518.1811.0976l-.1232.3592a.0621.0621,0,0,0,.1123.0524l.1965-.322q.0976.0408.1981.0751l-.0746.3712a.062.062,0,0,0,.1181.037l.1535-.3473q.0989.0291.2.0518l-.0259.3751a.062.062,0,0,0,.122.0215l.1071-.3638q.1046.0147.21.0219l.0241.3787a.062.062,0,0,0,.1238.0053l.0581-.3717q.1032-.0006.206-.008l.073.372a.0621.0621,0,0,0,.1235-.0108l.009-.3778q.105-.0132.2087-.0333l.1211.359a.0622.0622,0,0,0,.121-.027l-.04-.3747q.0995-.027.1963-.06l.1668.3409a.0621.0621,0,0,0,.1165-.0425l-.0891-.368q.0985-.039.1942-.0841l.209.3143a.0622.0622,0,0,0,.11-.0575l-.1373-.3541q.09-.05.1763-.1056l.2487.2851a.0622.0622,0,0,0,.1015-.0713l-.1809-.3315q.0838-.0642.1634-.1339l.2851.2509a.062.062,0,0,0,.0912-.0839l-.2233-.3053q.0736-.072.1424-.1488l.3137.211a.0621.0621,0,0,0,.0795-.0951l-.2619-.2749q.066-.0825.1262-.1693l.3382.1676a.062.062,0,0,0,.0665-.1045l-.2948-.2374q.0519-.0886.0978-.1809l.359.1231a.0621.0621,0,0,0,.0523-.1124l-.3217-.1944q.0408-.0978.0752-.1981l.371.0746a.062.062,0,0,0,.0371-.1182l-.3472-.1534q.0291-.099.0518-.2l.3751.0258a.062.062,0,0,0,.0214-.122l-.3636-.107q.0147-.1047.0225-.21l.3786-.0264a.0619.0619,0,0,0,.0053-.1236l-.3718-.0558q-.0006-.1031-.008-.2059l.3719-.075a.062.062,0,0,0-.0108-.1233l-.3776-.0073q-.0133-.1048-.0335-.2087l.3584-.1231a.0619.0619,0,0,0-.0268-.1208l-.374.0428q-.0272-.0993-.0607-.1968l.34-.1689a.062.062,0,0,0-.0424-.1163L10.92,6.82q-.039-.0984-.0841-.1942l.3128-.2106a.0621.0621,0,0,0-.0573-.11l-.3531.1389q-.05-.09-.1057-.1763l.2839-.25a.0621.0621,0,0,0-.0711-.1015l-.3305.1826q-.0642-.084-.1339-.1634l.2495-.2866a.062.062,0,0,0-.0838-.0912l-.3039.2248q-.0722-.0738-.149-.1425l.2093-.3149a.0621.0621,0,0,0-.0949-.08l-.2733.2634q-.0826-.066-.1694-.1262L9.931,5.043a.0619.0619,0,0,0-.1043-.0664l-.2357.296q-.0888-.0519-.1809-.0979l.1211-.36a.062.062,0,0,0-.1119-.0534l-.1944.3228q-.0978-.0408-.198-.0749l.0723-.3719A.062.062,0,0,0,8.9818,4.6l-.1515.348q-.0987-.0292-.1993-.0517l.0236-.3761a.0621.0621,0,0,0-.122-.0214l-.1049.3641q-.1045-.0147-.21-.0224l-.0262-.3786A.064.064,0,0,0,8.13,4.4015a.0634.0634,0,0,0-.0621.0558l-.0558.3718q-.1031.0006-.2059.008l-.0749-.3719a.0639.0639,0,0,0-.0688-.0523Zm.0945,1.04a2.5569,2.5569,0,0,1,2.77,2.3239l0,0h0a2.5571,2.5571,0,0,1-2.324,2.7706h0a2.5571,2.5571,0,0,1-.4464-5.0947Z"/></g><path id="use1176-5-6" class="cls-5" d="M11.48,11.4l.0764-.0829c.0288-.0312.0568-.0627.0846-.0943l.5205.3468.088-.1023-.4126-.4823q.0871-.1134.1669-.23l.558.2807.0752-.1126-.4678-.4277q.0726-.1232.1377-.2492l.5876.21.061-.1213-.5164-.3674q.0569-.1311.1066-.2652l.6088.1371L13.2,9.7122,12.6426,9.41q.0287-.096.0531-.1927l.62.0727.0321-.1316-.5866-.2422q.0261-.14.0439-.281l.6249-.0034.0159-.1344-.6124-.169q.0087-.1418.0091-.284l.62-.08-.0006-.1355-.6283-.0933q-.009-.1421-.0256-.2832l.6056-.1546-.017-.1342-.6347-.0161q-.0182-.0981-.04-.1956l.586-.2169-.031-.1317-.6326.05q-.04-.1363-.088-.27l.5547-.2866L13.0642,5.97l-.6211.1268q-.0565-.13-.1207-.2578l.5157-.3515-.062-.12-.601.2016q-.0719-.1223-.1513-.241l.4688-.412-.0766-.1117-.5724.2736q-.06-.0791-.1247-.1561l.4237-.459L12.0552,4.36l-.5412.332q-.097-.1023-.2014-.2l.3648-.5079-.1-.0921-.4966.3955q-.11-.0906-.2242-.1745l.3-.5483-.11-.0791-.4442.4527q-.0842-.0537-.17-.1041l.2408-.576L10.5556,3.19l-.3943.4968q-.1275-.0639-.2583-.12l.1679-.6-.1246-.0524-.331.5408q-.1351-.0481-.2729-.088l.0993-.6147-.13-.038-.2682.5766Q8.9461,3.27,8.8475,3.252l.0345-.6213-.1332-.024-.2062.6006q-.1419-.0154-.2839-.0236l-.0413-.62-.1352-.0075-.1313.62q-.0926.0007-.1846.0051l-.15-.6873-.1345.0125-.0425.7009q-.13.015-.26.0369l-.2324-.6634L6.8145,2.61l.0433.7q-.1062.0255-.2115.0557l-.269-.6245-.13.0384.0914.6855q-.1269.0457-.2512.0987L5.7462,2.98l-.1244.0535.173.6668q-.083.0418-.1643.0872l-.3989-.5427-.1181.0662.241.6428q-.114.0732-.224.1539l-.46-.4882-.1092.08.3165.6064q-.0714.06-.1412.1235l-.5076-.4364-.1.0912.3769.5686q-.0612.0633-.12.1285l-.5919-.3277-.0828.1071.469.4647q-.0594.0753-.1158.1527l-.6191-.2619-.0712.1151.5118.41q-.0743.1178-.1418.24l-.6418-.1838-.0565.123.5543.3428q-.0413.088-.0792.1781l-.6544-.1149-.0437.1282.5847.2818q-.0457.133-.0837.2684l-.6608-.0342-.0275.1326.6124.2076q-.024.1128-.0427.2266l-.666.0135L2.52,7.3854l.6426.1688q-.0136.1386-.0192.2778l-.6548.0924L2.4873,8.06l.6543.0884q.0025.1015.0092.2035l-.5644.1674.0183.1342.5747-.0079q.0192.1509.0476.3l-.5368.234.0346.1309.5666-.0773q.0272.1064.0589.2113l-.5076.2876.0482.1264.5536-.1358q.0535.1443.1164.285l-.4682.3407.0622.12.5335-.1973q.0711.1362.15.2675l-.4217.3939.0765.1117.5039-.2611q.0633.0911.13.1792L3.75,11.398l.0874.103.4756-.3108q.1.1156.2075.2261l-.3225.4786.0994.0917.4337-.3673q.1135.103.2334.1989l-.2621.5151.11.0788.3859-.418q.0908.0639.1834.1232l-.2068.54.1171.0666.3407-.4566q.1338.0744.2719.14l-.14.5629.125.0524.2847-.4971q.1419.0572.2862.1051l-.0707.5789.13.0365.2224-.5314q.1468.039.2955.0688v.5876l.134.0207.1573-.5591q.1072.0147.2147.0248l.0622.5882.1352.0064.0989-.5765q.15.0045.2992,0l.1349.5816.1351-.01.0276-.5894q.148-.0135.2951-.0361l.2067.5658.1325-.0263-.0444-.5942q.1443-.0313.2868-.0716l.276.5417.1286-.0425L9.6,12.6055q.0984-.0345.1951-.0732l.3344.5136.1234-.0554-.18-.5794q.1312-.0622.2589-.1325l.3987.4741.1159-.0706-.2523-.5594q.1211-.0769.2384-.1617l.4588.4272.1062-.084-.3226-.5309c.073-.06.1156-.0906.1856-.1555l.5138.3725.0953-.0965Zm-1.3135.1294a.9029.9029,0,0,1-.1852.0886c-.2709.0791-.6432.0116-.8964-.8546l-.633-2.1656-.0066-.0154-.0492-.134a1.0518,1.0518,0,0,1-.0532-.3932,1.049,1.049,0,0,1,.3186-.4791l1.5258-1.6532c.6121-.6632.9756-.5579,1.1828-.3666a2.3106,2.3106,0,0,1,.3394.5344,4.2366,4.2366,0,0,1-1.543,5.4387Zm-1.9182.5947a2.7847,2.7847,0,0,1-.7636.0353A4.23,4.23,0,0,1,3.72,8.5492l.034.1727a2.8067,2.8067,0,0,1-.0266-.7706c.0573-.2761.292-.5726,1.1754-.39L6.97,7.99l-.0175-.0009a1.7589,1.7589,0,0,1,.6916.3313,1.252,1.252,0,0,1,.2912.52l.6084,2.0817c.1741.5956.0973.9036-.0554,1.0633A.53.53,0,0,1,8.2483,12.1241ZM8.0931,8.13a.2654.2654,0,0,1-.3749.0151h0a.2654.2654,0,0,1-.0147-.375h0a.2655.2655,0,0,1,.39.36Zm-.3214-.6127C7.656,7.5486,7.5639,7.54,7.21,7.46L4.99,7.0026c-.8571-.1851-.9529-.5455-.8963-.8186A2.2023,2.2023,0,0,1,4.36,5.6452a4.2389,4.2389,0,0,1,5.396-1.5015,1.6714,1.6714,0,0,1,.2873.1884c.2073.1913.3412.5451-.271,1.2084L8.2487,7.1915A.9312.9312,0,0,1,7.7717,7.5174Z"/></g></svg>